<?xml version="1.0" encoding="UTF-8"?>
<svg version="1.1" xmlns="http://www.w3.org/2000/svg" width="3375" height="3375">
<path d="M0 0 C0.88959412 0.00237671 1.77918823 0.00475342 2.69573975 0.00720215 C17.04725663 0.06697737 30.81011671 1.09898917 44.8125 4.4375 C45.5235791 4.59766602 46.2346582 4.75783203 46.96728516 4.92285156 C51.31284961 5.91186381 55.5599134 7.10768563 59.8125 8.4375 C60.44043457 8.63005371 61.06836914 8.82260742 61.71533203 9.02099609 C81.43196364 15.16447829 99.97342655 24.52561524 116.8125 36.4375 C117.38033203 36.83710937 117.94816406 37.23671875 118.53320312 37.6484375 C124.89013351 42.16420688 130.80250694 47.05049373 136.52734375 52.33984375 C138.5166142 54.16589201 140.551015 55.8974008 142.625 57.625 C195.33522337 103.87875023 219.59316566 178.54860447 224.8125 246.4375 C225.1425 254.0275 225.4725 261.6175 225.8125 269.4375 C375.9625 269.4375 526.1125 269.4375 680.8125 269.4375 C680.8125 405.0675 680.8125 540.6975 680.8125 680.4375 C791.0325 680.4375 901.2525 680.4375 1014.8125 680.4375 C1014.8125 544.8075 1014.8125 409.1775 1014.8125 269.4375 C1109.8525 269.4375 1204.8925 269.4375 1302.8125 269.4375 C1302.8125 624.8475 1302.8125 980.2575 1302.8125 1346.4375 C1207.7725 1346.4375 1112.7325 1346.4375 1014.8125 1346.4375 C1014.8125 1197.9375 1014.8125 1049.4375 1014.8125 896.4375 C904.5925 896.4375 794.3725 896.4375 680.8125 896.4375 C680.8125 1044.9375 680.8125 1193.4375 680.8125 1346.4375 C606.60375 1346.72625 532.395 1347.015 455.9375 1347.3125 C432.48316895 1347.43995605 409.02883789 1347.56741211 384.86376953 1347.69873047 C356.28100586 1347.76196289 356.28100586 1347.76196289 342.91134644 1347.77371216 C333.54878728 1347.78678569 324.1873932 1347.83821163 314.82516479 1347.91555786 C304.03076663 1348.00460434 293.23748861 1348.04522064 282.44272029 1348.02572931 C276.91878124 1348.01728511 271.39734621 1348.03077153 265.87386537 1348.10651183 C260.8778436 1348.17460362 255.88609674 1348.1780766 250.88987923 1348.13011551 C249.08471541 1348.12418014 247.27928451 1348.14193304 245.47464538 1348.1858561 C232.32268676 1348.48713265 232.32268676 1348.48713265 228.11682567 1345.0529379 C224.63319495 1341.24818051 222.23208723 1336.96681496 219.8125 1332.4375 C218.85449855 1330.9841066 217.88292797 1329.5391789 216.87890625 1328.1171875 C216.04224452 1326.85029419 215.207641 1325.58203947 214.375 1324.3125 C209.221885 1316.5248453 203.99794744 1308.7864326 198.75 1301.0625 C198.34653351 1300.46854431 197.94306702 1299.87458862 197.52737427 1299.26263428 C195.45210391 1296.20767925 193.37634049 1293.15305975 191.30029297 1290.09863281 C187.69488679 1284.79357286 184.09402788 1279.48542797 180.49295044 1274.1774292 C178.5163318 1271.26398499 176.53939959 1268.35075357 174.5625 1265.4375 C173.77083184 1264.27083435 172.97916517 1263.10416768 172.1875 1261.9375 C171.795625 1261.36 171.40375 1260.7825 171 1260.1875 C163.47916667 1249.10416667 155.95833333 1238.02083333 148.4375 1226.9375 C148.04563507 1226.36001511 147.65377014 1225.78253021 147.25003052 1225.18754578 C146.45826113 1224.0207272 145.66649274 1222.85390794 144.87472534 1221.68708801 C142.89713845 1218.77274008 140.91953434 1215.85840383 138.94189453 1212.9440918 C135.36052132 1207.66643149 131.77927843 1202.38868297 128.19866943 1197.11050415 C120.2424212 1185.3822126 112.28352213 1173.65575884 104.3125 1161.9375 C95.93852919 1149.62686332 87.5781664 1137.30702324 79.21972656 1124.98583984 C75.64632385 1119.71837284 72.07212676 1114.45144488 68.49798584 1109.18447876 C66.51945767 1106.26884149 64.54098148 1103.35316895 62.5625 1100.4375 C61.77083358 1099.27083316 60.97916692 1098.1041665 60.1875 1096.9375 C21 1039.1875 -18.1875 981.4375 -58.5625 921.9375 C-58.95434479 921.36004532 -59.34618958 920.78259064 -59.74990845 920.18763733 C-60.54188327 919.02051492 -61.33385512 917.85339049 -62.12582397 916.68626404 C-64.10025134 913.77655357 -66.07472995 910.8668779 -68.04931641 907.95727539 C-71.66791321 902.6250712 -75.28608858 897.29258305 -78.90240479 891.95883179 C-80.55851496 889.51628223 -82.21491774 887.07393115 -83.87133789 884.6315918 C-84.99979178 882.96747503 -86.12783759 881.30308157 -87.25585938 879.63867188 C-93.87119344 869.88506612 -100.53226605 860.16438038 -107.1875 850.4375 C-107.6825 1095.9575 -107.6825 1095.9575 -108.1875 1346.4375 C-202.8975 1346.4375 -297.6075 1346.4375 -395.1875 1346.4375 C-395.1875 1150.0875 -395.1875 953.7375 -395.1875 751.4375 C-400.6325 749.9525 -400.6325 749.9525 -406.1875 748.4375 C-469.39191642 728.33869771 -530.28465805 697.14541772 -581.1875 654.4375 C-581.69010849 654.01861511 -582.19271698 653.59973022 -582.71055603 653.16815186 C-591.28450463 646.00867896 -599.41618247 638.52802149 -607.28491211 630.60083008 C-609.00998477 628.86495269 -610.74561991 627.1401491 -612.48242188 625.41601562 C-619.17379628 618.73301323 -625.34612725 611.88583827 -631.1875 604.4375 C-632.16380574 603.2331097 -633.14145162 602.02980308 -634.12109375 600.828125 C-640.65522747 592.67913947 -646.59988239 584.26027173 -652.1875 575.4375 C-652.65269043 574.70853516 -653.11788086 573.97957031 -653.59716797 573.22851562 C-675.4758176 538.6963603 -689.26900258 501.02980044 -694.1875 460.4375 C-694.31898438 459.42816406 -694.45046875 458.41882812 -694.5859375 457.37890625 C-699.03590708 415.94608133 -689.83926737 373.93782537 -670.1875 337.4375 C-669.57390625 336.27089844 -668.9603125 335.10429688 -668.328125 333.90234375 C-660.18449629 318.97796634 -649.60093585 306.22147987 -637.78027344 294.07714844 C-636.3636962 292.61888162 -634.96563085 291.14268344 -633.5703125 289.6640625 C-610.35117193 265.53138198 -579.00200478 248.14978336 -547.1875 238.4375 C-546.42244141 238.19950684 -545.65738281 237.96151367 -544.86914062 237.71630859 C-487.06773168 219.93978832 -426.29788584 231.9754832 -373.1875 258.4375 C-372.27677734 258.88738281 -371.36605469 259.33726562 -370.42773438 259.80078125 C-357.49998935 266.23221856 -345.21966153 273.46303537 -333.1875 281.4375 C-332.14601807 282.12561768 -332.14601807 282.12561768 -331.08349609 282.82763672 C-313.95686122 294.20850895 -297.89596871 306.98842652 -282.25 320.3125 C-281.72510986 320.75795166 -281.20021973 321.20340332 -280.65942383 321.66235352 C-270.08564063 330.7262774 -260.10301879 340.35859725 -250.27661133 350.21801758 C-248.36327806 352.13675505 -246.44459496 354.05002754 -244.52539062 355.96289062 C-238.53445734 361.95009239 -232.62825308 367.93814295 -227.1875 374.4375 C-226.08566048 375.71963163 -224.98278834 377.00087655 -223.87890625 378.28125 C-222.83550591 379.49963052 -221.79253306 380.71837728 -220.75 381.9375 C-220.20923828 382.56914063 -219.66847656 383.20078125 -219.11132812 383.8515625 C-217.80299828 385.37987701 -216.49519137 386.90863915 -215.1875 388.4375 C-216.1775 388.7675 -217.1675 389.0975 -218.1875 389.4375 C-219.9296875 388.2421875 -219.9296875 388.2421875 -222.0625 386.3125 C-252.04824972 361.46100095 -291.68441914 345.47454096 -329.1875 336.4375 C-330.05826172 336.22512695 -330.92902344 336.01275391 -331.82617188 335.79394531 C-364.25011888 328.13169415 -399.12298066 328.36060927 -431.1875 337.4375 C-432.24130859 337.72947266 -432.24130859 337.72947266 -433.31640625 338.02734375 C-467.7247228 347.79095608 -497.48921324 371.76976341 -515.40478516 402.52734375 C-517.88962461 407.06383557 -520.08120717 411.71550219 -522.1875 416.4375 C-522.73019531 417.62472656 -523.27289062 418.81195312 -523.83203125 420.03515625 C-541.86082936 461.98063843 -536.95242322 508.8798343 -520.63671875 550.44140625 C-512.0160697 571.57547845 -499.1910925 591.76285134 -483.26953125 608.1171875 C-481.1875 610.4375 -481.1875 610.4375 -480.1875 613.4375 C-478.85884059 614.11343372 -477.52459167 614.77840358 -476.1875 615.4375 C-474.68674915 616.87361177 -473.23324839 618.35969668 -471.8125 619.875 C-465.74371606 626.05009841 -459.1278758 631.277297 -452.1875 636.4375 C-451.55489258 636.90913574 -450.92228516 637.38077148 -450.27050781 637.86669922 C-387.61345472 684.19275775 -310.30659302 710.54159181 -233.5625 720.625 C-232.38574707 720.7799292 -231.20899414 720.9348584 -229.99658203 721.09448242 C-226.06424612 721.58462363 -222.12868919 722.02613492 -218.1875 722.4375 C-217.353396 722.52577057 -216.51929199 722.61404114 -215.65991211 722.70498657 C-198.41547217 724.47641782 -181.26312938 724.79825749 -163.9375 724.75 C-162.56245942 724.74807535 -161.18741873 724.74623496 -159.81237793 724.74447632 C-138.48894032 724.70487919 -117.35711891 724.14386597 -96.1875 721.4375 C-95.04961029 721.29254089 -95.04961029 721.29254089 -93.88873291 721.14465332 C-85.5281618 720.06822525 -77.17837831 718.90915817 -68.84765625 717.62109375 C-67.67855713 717.44118896 -66.50945801 717.26128418 -65.30493164 717.07592773 C-59.28869116 715.84384465 -55.74489133 713.45639919 -51.375 709.25 C-50.30534193 708.24409531 -49.23502998 707.23888548 -48.1640625 706.234375 C-47.65004883 705.74904297 -47.13603516 705.26371094 -46.60644531 704.76367188 C-44.85885476 703.13034224 -43.06388736 701.55917126 -41.25 700 C-28.91815973 689.27333729 -16.64061139 678.06784776 -6.0546875 665.5859375 C-4.03352688 663.26033427 -1.9423665 661.01244125 0.16186523 658.76220703 C4.88896435 653.70301194 9.44619538 648.59722469 13.70703125 643.1328125 C15.2886761 641.10807234 16.88776275 639.10747907 18.51171875 637.1171875 C43.86779669 605.96350849 65.28180287 571.64842552 82.79541016 535.52050781 C83.8926338 533.27338535 85.01470907 531.03952888 86.13671875 528.8046875 C93.43586283 514.08617132 99.26234065 498.88978928 104.8125 483.4375 C105.42206543 481.74681396 105.42206543 481.74681396 106.04394531 480.02197266 C131.19063271 409.53441661 142.9433046 329.01906321 109.875 259.25 C101.02394849 241.16381416 89.64541701 225.06086941 75.8125 210.4375 C74.99394531 209.55449219 74.17539063 208.67148437 73.33203125 207.76171875 C46.81036154 180.06479041 8.46903477 163.78231983 -29.69140625 162.50390625 C-72.52929968 161.62853523 -109.35861508 179.58218195 -139.80419922 208.76855469 C-186.61305069 254.74396918 -206.50736375 323.60617127 -210.1875 387.4375 C-210.8475 387.1075 -211.5075 386.7775 -212.1875 386.4375 C-212.82592773 384.0144043 -212.82592773 384.0144043 -213.37109375 380.76171875 C-213.57500732 379.55612305 -213.7789209 378.35052734 -213.98901367 377.10839844 C-214.20207736 375.78076995 -214.41404286 374.45296484 -214.625 373.125 C-214.78882675 372.11403259 -214.78882675 372.11403259 -214.95596313 371.0826416 C-229.13366012 283.30127864 -228.17263798 180.09699356 -171.0625 87.5 C-164.23953957 78.41198346 -156.92311666 69.75957136 -149.1875 61.4375 C-148.57648437 60.77234375 -147.96546875 60.1071875 -147.3359375 59.421875 C-141.74056265 53.56458899 -135.42289133 48.67463389 -128.97705078 43.80029297 C-127.34245044 42.55549909 -125.7304643 41.28115192 -124.12109375 40.00390625 C-102.5914164 23.59392689 -76.36258294 13.02769989 -50.375 6.0625 C-49.52969727 5.835625 -48.68439453 5.60875 -47.81347656 5.375 C-31.96670935 1.39683235 -16.3013587 -0.11552295 0 0 Z M391.8125 463.4375 C390.87859385 464.44846679 389.98548706 465.49715029 389.109375 466.55859375 C388.54798828 467.23792969 387.98660156 467.91726563 387.40820312 468.6171875 C386.79912109 469.36226562 386.19003906 470.10734375 385.5625 470.875 C384.61793945 472.02548828 384.61793945 472.02548828 383.65429688 473.19921875 C378.87607132 479.05362123 374.27061909 485.02407022 369.71435547 491.05175781 C365.25970815 496.91845955 360.61109082 502.60572205 355.90454102 508.27124023 C351.82720925 513.18483121 347.84974272 518.16383919 343.92529297 523.19995117 C340.44351718 527.65878835 336.88983451 532.05506866 333.3125 536.4375 C329.26267933 541.39982244 325.25444806 546.3890402 321.3125 551.4375 C316.8304989 557.17760668 312.25293443 562.83443246 307.6484375 568.4765625 C304.15719917 572.76201618 300.71431112 577.08079453 297.3125 581.4375 C292.8304989 587.17760668 288.25293443 592.83443246 283.6484375 598.4765625 C280.15719917 602.76201618 276.71431112 607.08079453 273.3125 611.4375 C269.37054835 616.4859644 265.3621258 621.47501462 261.3125 626.4375 C255.38784029 633.70082952 249.57980184 641.04893615 243.8125 648.4375 C237.50506755 656.51803205 231.1300703 664.5339614 224.64892578 672.47607422 C221.15742684 676.7616126 217.7144522 681.08061384 214.3125 685.4375 C209.8304989 691.17760668 205.25293443 696.83443246 200.6484375 702.4765625 C197.15719917 706.76201618 193.71431112 711.08079453 190.3125 715.4375 C185.83338732 721.17390746 181.25905322 726.82732041 176.65722656 732.46557617 C172.61916079 737.42187552 168.65496762 742.43130213 164.71948242 747.46923828 C160.50019912 752.86084886 156.17424239 758.1603302 151.8125 763.4375 C153.40740741 768.65162039 156.70524241 772.38201204 160.0625 776.5625 C165.0558809 782.87674812 169.94049372 789.24842822 174.6875 795.75 C179.65254519 802.53948226 184.6991614 809.25899141 189.8125 815.9375 C195.46615962 823.32382009 201.02720389 830.76944732 206.5234375 838.2734375 C210.88527032 844.21421433 215.33304548 850.0850326 219.8125 855.9375 C225.46603395 863.32391792 231.02720194 870.76944466 236.5234375 878.2734375 C240.88527032 884.21421433 245.33304548 890.0850326 249.8125 895.9375 C255.46603395 903.32391792 261.02720194 910.76944466 266.5234375 918.2734375 C270.88527032 924.21421433 275.33304548 930.0850326 279.8125 935.9375 C285.46603395 943.32391792 291.02720194 950.76944466 296.5234375 958.2734375 C300.88527032 964.21421433 305.33304548 970.0850326 309.8125 975.9375 C315.46603395 983.32391792 321.02720194 990.76944466 326.5234375 998.2734375 C330.88527032 1004.21421433 335.33304548 1010.0850326 339.8125 1015.9375 C345.46603395 1023.32391792 351.02720194 1030.76944466 356.5234375 1038.2734375 C361.53595274 1045.1004379 366.66715766 1051.83289906 371.81860352 1058.55541992 C377.16579441 1065.54800085 382.39727953 1072.62056936 387.56054688 1079.75 C388.10646484 1080.49894531 388.65238281 1081.24789062 389.21484375 1082.01953125 C389.69429443 1082.68186768 390.17374512 1083.3442041 390.66772461 1084.02661133 C391.04550049 1084.49220459 391.42327637 1084.95779785 391.8125 1085.4375 C392.1425 1085.4375 392.4725 1085.4375 392.8125 1085.4375 C392.8125 880.1775 392.8125 674.9175 392.8125 463.4375 C392.4825 463.4375 392.1525 463.4375 391.8125 463.4375 Z " fill="#2A3D6F" transform="translate(1408.1875,647.5625)"/>
<path d="M0 0 C0.88959412 0.00237671 1.77918823 0.00475342 2.69573975 0.00720215 C17.04725663 0.06697737 30.81011671 1.09898917 44.8125 4.4375 C45.5235791 4.59766602 46.2346582 4.75783203 46.96728516 4.92285156 C51.31284961 5.91186381 55.5599134 7.10768563 59.8125 8.4375 C60.44043457 8.63005371 61.06836914 8.82260742 61.71533203 9.02099609 C81.43196364 15.16447829 99.97342655 24.52561524 116.8125 36.4375 C117.38033203 36.83710937 117.94816406 37.23671875 118.53320312 37.6484375 C124.89013351 42.16420688 130.80250694 47.05049373 136.52734375 52.33984375 C138.5166142 54.16589201 140.551015 55.8974008 142.625 57.625 C197.16119863 105.48106185 220.12876921 182.1441565 225.24609375 252.10546875 C227.46999226 287.40985752 225.10859107 325.19195984 217.39404297 359.75732422 C216.70893719 362.91479327 216.09003152 366.08250571 215.47265625 369.25390625 C210.1815365 396.15772337 202.4388554 422.23122804 193.5 448.125 C193.14192261 449.1632341 193.14192261 449.1632341 192.77661133 450.22244263 C179.78552426 487.8283628 163.90563216 524.05736802 143.8125 558.4375 C142.69269519 560.37108614 141.57290355 562.3046799 140.453125 564.23828125 C134.25424543 574.88745261 127.84382502 585.31821831 120.8125 595.4375 C120.3395752 596.12150879 119.86665039 596.80551758 119.37939453 597.51025391 C105.08955355 618.13356818 89.45332246 637.66528818 72.8125 656.4375 C71.95269531 657.41074219 71.09289063 658.38398437 70.20703125 659.38671875 C63.65672143 666.63366417 56.79724029 673.58017339 49.91491699 680.51031494 C48.82215496 681.61112908 47.73087649 682.71341832 46.64123535 683.81732178 C40.54322156 689.98663673 34.37211884 695.8308989 27.57006836 701.23535156 C24.63992307 703.57531708 21.79694417 706.00267227 18.9453125 708.4375 C12.81295927 713.55207627 6.35541119 718.0558419 -0.3125 722.4375 C-0.90043335 722.82624298 -1.4883667 723.21498596 -2.09411621 723.61550903 C-11.86331781 730.06611846 -21.73820116 736.14454011 -32.1875 741.4375 C-33.04698242 741.87610352 -33.90646484 742.31470703 -34.79199219 742.76660156 C-70.72513743 760.94275244 -110.75581801 773.8812817 -151.09228516 777.0300293 C-154.68009408 777.31360152 -158.26508865 777.62031701 -161.85009766 777.93725586 C-179.13212228 779.40156371 -196.33599556 779.80118031 -213.66610718 779.75555801 C-215.84958978 779.74990396 -218.03306458 779.74709249 -220.21655273 779.74447632 C-241.02458087 779.7082382 -261.53669444 779.25377319 -282.1875 776.4375 C-284.18433294 776.19085854 -286.18117048 775.94425115 -288.17819214 775.69914246 C-321.31872572 771.57640716 -353.88352673 763.91737911 -385.87011719 754.42041016 C-388.81744847 753.54714288 -391.76976394 752.69597724 -394.7265625 751.85546875 C-462.07388821 732.51857318 -527.42947146 699.54094357 -581.1875 654.4375 C-581.69010849 654.01861511 -582.19271698 653.59973022 -582.71055603 653.16815186 C-591.28450463 646.00867896 -599.41618247 638.52802149 -607.28491211 630.60083008 C-609.00998477 628.86495269 -610.74561991 627.1401491 -612.48242188 625.41601562 C-619.17379628 618.73301323 -625.34612725 611.88583827 -631.1875 604.4375 C-632.16380574 603.2331097 -633.14145162 602.02980308 -634.12109375 600.828125 C-640.65522747 592.67913947 -646.59988239 584.26027173 -652.1875 575.4375 C-652.65269043 574.70853516 -653.11788086 573.97957031 -653.59716797 573.22851562 C-675.4758176 538.6963603 -689.26900258 501.02980044 -694.1875 460.4375 C-694.31898438 459.42816406 -694.45046875 458.41882812 -694.5859375 457.37890625 C-699.03590708 415.94608133 -689.83926737 373.93782537 -670.1875 337.4375 C-669.57390625 336.27089844 -668.9603125 335.10429688 -668.328125 333.90234375 C-660.18449629 318.97796634 -649.60093585 306.22147987 -637.78027344 294.07714844 C-636.3636962 292.61888162 -634.96563085 291.14268344 -633.5703125 289.6640625 C-610.35117193 265.53138198 -579.00200478 248.14978336 -547.1875 238.4375 C-546.42244141 238.19950684 -545.65738281 237.96151367 -544.86914062 237.71630859 C-487.06773168 219.93978832 -426.29788584 231.9754832 -373.1875 258.4375 C-372.27677734 258.88738281 -371.36605469 259.33726562 -370.42773438 259.80078125 C-357.49998935 266.23221856 -345.21966153 273.46303537 -333.1875 281.4375 C-332.14601807 282.12561768 -332.14601807 282.12561768 -331.08349609 282.82763672 C-313.95686122 294.20850895 -297.89596871 306.98842652 -282.25 320.3125 C-281.72510986 320.75795166 -281.20021973 321.20340332 -280.65942383 321.66235352 C-270.08564063 330.7262774 -260.10301879 340.35859725 -250.27661133 350.21801758 C-248.36327806 352.13675505 -246.44459496 354.05002754 -244.52539062 355.96289062 C-238.53445734 361.95009239 -232.62825308 367.93814295 -227.1875 374.4375 C-226.08566048 375.71963163 -224.98278834 377.00087655 -223.87890625 378.28125 C-222.83550591 379.49963052 -221.79253306 380.71837728 -220.75 381.9375 C-220.20923828 382.56914063 -219.66847656 383.20078125 -219.11132812 383.8515625 C-217.80299828 385.37987701 -216.49519137 386.90863915 -215.1875 388.4375 C-216.1775 388.7675 -217.1675 389.0975 -218.1875 389.4375 C-219.9296875 388.2421875 -219.9296875 388.2421875 -222.0625 386.3125 C-252.04824972 361.46100095 -291.68441914 345.47454096 -329.1875 336.4375 C-330.05826172 336.22512695 -330.92902344 336.01275391 -331.82617188 335.79394531 C-364.25011888 328.13169415 -399.12298066 328.36060927 -431.1875 337.4375 C-432.24130859 337.72947266 -432.24130859 337.72947266 -433.31640625 338.02734375 C-467.7247228 347.79095608 -497.48921324 371.76976341 -515.40478516 402.52734375 C-517.88962461 407.06383557 -520.08120717 411.71550219 -522.1875 416.4375 C-522.73019531 417.62472656 -523.27289062 418.81195312 -523.83203125 420.03515625 C-541.86082936 461.98063843 -536.95242322 508.8798343 -520.63671875 550.44140625 C-512.0160697 571.57547845 -499.1910925 591.76285134 -483.26953125 608.1171875 C-481.1875 610.4375 -481.1875 610.4375 -480.1875 613.4375 C-478.85884059 614.11343372 -477.52459167 614.77840358 -476.1875 615.4375 C-474.68674915 616.87361177 -473.23324839 618.35969668 -471.8125 619.875 C-465.74371606 626.05009841 -459.1278758 631.277297 -452.1875 636.4375 C-451.55489258 636.90913574 -450.92228516 637.38077148 -450.27050781 637.86669922 C-387.61345472 684.19275775 -310.30659302 710.54159181 -233.5625 720.625 C-232.38574707 720.7799292 -231.20899414 720.9348584 -229.99658203 721.09448242 C-226.06424612 721.58462363 -222.12868919 722.02613492 -218.1875 722.4375 C-217.353396 722.52577057 -216.51929199 722.61404114 -215.65991211 722.70498657 C-198.41547217 724.47641782 -181.26312938 724.79825749 -163.9375 724.75 C-162.56245942 724.74807535 -161.18741873 724.74623496 -159.81237793 724.74447632 C-138.48894032 724.70487919 -117.35711891 724.14386597 -96.1875 721.4375 C-95.04961029 721.29254089 -95.04961029 721.29254089 -93.88873291 721.14465332 C-85.5281618 720.06822525 -77.17837831 718.90915817 -68.84765625 717.62109375 C-67.67855713 717.44118896 -66.50945801 717.26128418 -65.30493164 717.07592773 C-59.28869116 715.84384465 -55.74489133 713.45639919 -51.375 709.25 C-50.30534193 708.24409531 -49.23502998 707.23888548 -48.1640625 706.234375 C-47.65004883 705.74904297 -47.13603516 705.26371094 -46.60644531 704.76367188 C-44.85885476 703.13034224 -43.06388736 701.55917126 -41.25 700 C-28.91815973 689.27333729 -16.64061139 678.06784776 -6.0546875 665.5859375 C-4.03352688 663.26033427 -1.9423665 661.01244125 0.16186523 658.76220703 C4.88896435 653.70301194 9.44619538 648.59722469 13.70703125 643.1328125 C15.2886761 641.10807234 16.88776275 639.10747907 18.51171875 637.1171875 C43.86779669 605.96350849 65.28180287 571.64842552 82.79541016 535.52050781 C83.8926338 533.27338535 85.01470907 531.03952888 86.13671875 528.8046875 C93.43586283 514.08617132 99.26234065 498.88978928 104.8125 483.4375 C105.42206543 481.74681396 105.42206543 481.74681396 106.04394531 480.02197266 C131.19063271 409.53441661 142.9433046 329.01906321 109.875 259.25 C101.02394849 241.16381416 89.64541701 225.06086941 75.8125 210.4375 C74.99394531 209.55449219 74.17539063 208.67148437 73.33203125 207.76171875 C46.81036154 180.06479041 8.46903477 163.78231983 -29.69140625 162.50390625 C-72.52929968 161.62853523 -109.35861508 179.58218195 -139.80419922 208.76855469 C-186.61305069 254.74396918 -206.50736375 323.60617127 -210.1875 387.4375 C-210.8475 387.1075 -211.5075 386.7775 -212.1875 386.4375 C-212.82592773 384.0144043 -212.82592773 384.0144043 -213.37109375 380.76171875 C-213.57500732 379.55612305 -213.7789209 378.35052734 -213.98901367 377.10839844 C-214.20207736 375.78076995 -214.41404286 374.45296484 -214.625 373.125 C-214.78882675 372.11403259 -214.78882675 372.11403259 -214.95596313 371.0826416 C-229.13366012 283.30127864 -228.17263798 180.09699356 -171.0625 87.5 C-164.23953957 78.41198346 -156.92311666 69.75957136 -149.1875 61.4375 C-148.57648437 60.77234375 -147.96546875 60.1071875 -147.3359375 59.421875 C-141.74056265 53.56458899 -135.42289133 48.67463389 -128.97705078 43.80029297 C-127.34245044 42.55549909 -125.7304643 41.28115192 -124.12109375 40.00390625 C-102.5914164 23.59392689 -76.36258294 13.02769989 -50.375 6.0625 C-49.52969727 5.835625 -48.68439453 5.60875 -47.81347656 5.375 C-31.96670935 1.39683235 -16.3013587 -0.11552295 0 0 Z " fill="#EC1C24" transform="translate(1408.1875,647.5625)"/>
<path d="M0 0 C16.83 0 33.66 0 51 0 C51.33 17.16 51.66 34.32 52 52 C61.98633132 40.50132289 61.98633132 40.50132289 71.69140625 28.80859375 C74.91071918 24.89203538 78.22457893 21.05955623 81.53466797 17.21972656 C85.55446444 12.54614677 89.47459805 7.80162223 93.35546875 3.01171875 C95 1 95 1 96 0 C97.8718094 -0.09386381 99.7471806 -0.11743804 101.62133789 -0.11352539 C103.42309227 -0.11341209 103.42309227 -0.11341209 105.26124573 -0.11329651 C106.5685112 -0.10813522 107.87577667 -0.10297394 109.22265625 -0.09765625 C110.56644132 -0.09579198 111.91022707 -0.09436812 113.25401306 -0.09336853 C116.79682277 -0.08954402 120.3395917 -0.07971432 123.88238525 -0.06866455 C127.49515227 -0.05844899 131.10792584 -0.0538706 134.72070312 -0.04882812 C141.8138188 -0.03809198 148.90690674 -0.02101636 156 0 C153.86741926 3.29692905 151.84314487 6.41651837 149.01171875 9.1484375 C148.47393799 9.6746167 147.93615723 10.2007959 147.38208008 10.74291992 C146.54326294 11.55079956 146.54326294 11.55079956 145.6875 12.375 C141.51618965 16.46312676 137.51901696 20.58676661 133.73828125 25.04296875 C130.78518422 28.36769147 127.57244491 31.43446242 124.41015625 34.55859375 C121.73400514 37.26944374 119.25840022 40.10187208 116.78515625 42.99609375 C114.73321117 45.29948068 112.57058925 47.45834768 110.375 49.625 C109.24771484 50.75228516 109.24771484 50.75228516 108.09765625 51.90234375 C106.82417615 53.17582385 105.54246225 54.44123351 104.24609375 55.69140625 C102.61375137 57.29985592 102.61375137 57.29985592 101 60 C102.15353962 65.41765848 105.1411291 69.68440011 108.125 74.25 C109.21639231 75.94822454 110.30614783 77.64750176 111.39453125 79.34765625 C111.97799316 80.25789551 112.56145508 81.16813477 113.16259766 82.10595703 C116.43734678 87.26392622 119.62067228 92.47796596 122.8125 97.6875 C128.10701056 106.31634215 133.43649391 114.92169226 138.8125 123.5 C144.94733413 133.28981731 151.00286375 143.12529748 157 153 C164.89619866 131.07152358 172.41690121 109.01787493 179.875 86.9375 C180.3565319 85.51217484 180.83806877 84.08685135 181.3196106 82.66152954 C183.21971897 77.03697674 185.1193492 71.41226257 187.01844788 65.78736877 C190.73125996 54.7910516 194.44956582 43.79663078 198.19122314 32.81008911 C198.76101986 31.13584474 199.3298662 29.46127654 199.89764404 27.78634644 C200.67016166 25.50775122 201.44596973 23.23030201 202.22265625 20.953125 C202.64297119 19.71723633 203.06328613 18.48134766 203.49633789 17.20800781 C205.55972994 11.43359228 207.79873919 5.72327811 210 0 C227.16 0 244.32 0 262 0 C266.4996658 11.24916449 266.4996658 11.24916449 268.15966797 16.17602539 C268.72289513 17.84068344 268.72289513 17.84068344 269.29750061 19.53897095 C269.69174728 20.7133371 270.08599396 21.88770325 270.4921875 23.09765625 C271.13940908 25.01383703 271.78663161 26.93001748 272.43389606 28.84618378 C273.11546603 30.86560367 273.79568565 32.88547364 274.47549438 34.90548706 C275.89248527 39.11578106 277.31336345 43.32475626 278.73510742 47.53344727 C278.97191066 48.23447162 279.20871389 48.93549597 279.45269299 49.65776348 C279.92983798 51.07028018 280.40699269 52.48279361 280.88415718 53.89530373 C281.5967748 56.00520273 282.3090432 58.11521934 283.02122498 60.2252655 C286.76110549 71.30419944 290.52735635 82.37395226 294.3125 93.4375 C294.85299722 95.01853717 295.39344332 96.59959181 295.93383789 98.18066406 C297.02605107 101.37602902 298.11843914 104.5713341 299.2109375 107.76660156 C302.38339994 117.04618856 305.55390997 126.32643697 308.71932983 135.60842896 C309.44221129 137.72718743 310.16569173 139.84574165 310.88980103 141.96408081 C311.89288591 144.89871885 312.89394474 147.8340406 313.89453125 150.76953125 C314.19484253 151.64660736 314.49515381 152.52368347 314.80456543 153.42733765 C315.21805237 154.64243515 315.21805237 154.64243515 315.63989258 155.88208008 C315.99957878 156.93568474 315.99957878 156.93568474 316.36653137 158.01057434 C316.99440112 159.98241656 317.49809878 161.99239513 318 164 C301.17 164 284.34 164 267 164 C264 156 264 156 261 143 C244.5 143 228 143 211 143 C209.68 148.28 208.36 153.56 207 159 C206.34 160.65 205.68 162.3 205 164 C170.68 164 136.36 164 101 164 C93.575 151.13 93.575 151.13 86 138 C81.41550325 130.32725366 81.41550325 130.32725366 76.80859375 122.66796875 C72.47438054 115.48361325 68.23931957 108.24060777 64 101 C60.58301375 102.44071606 58.68041215 104.23230565 56.3125 107.0625 C55.71050781 107.77535156 55.10851563 108.48820312 54.48828125 109.22265625 C53.99714844 109.80917969 53.50601562 110.39570313 53 111 C52.67 111.33 52.34 111.66 52 112 C51.87718048 113.62579218 51.82217496 115.25677004 51.79467773 116.88696289 C51.77473251 117.92796646 51.75478729 118.96897003 51.73423767 120.04151917 C51.70916893 121.73993202 51.70916893 121.73993202 51.68359375 123.47265625 C51.66281265 124.62543564 51.64203156 125.77821503 51.62062073 126.96592712 C51.55500036 130.66472157 51.49618245 134.36358959 51.4375 138.0625 C51.39432665 140.56315879 51.35071276 143.06381001 51.30664062 145.56445312 C51.19847367 151.70956096 51.09949298 157.854721 51 164 C34.17 164 17.34 164 0 164 C0 109.88 0 55.76 0 0 Z M235 55 C233.00073235 62.0643048 231.00752178 69.13029796 229.01855469 76.19750977 C228.34092016 78.60252761 227.66188928 81.00715247 226.98144531 83.41137695 C226.00480466 86.8630756 225.03316029 90.31614679 224.0625 93.76953125 C223.75626709 94.84773636 223.45003418 95.92594147 223.13452148 97.03681946 C222.71408569 98.53803596 222.71408569 98.53803596 222.28515625 100.06958008 C222.03644775 100.95116287 221.78773926 101.83274567 221.53149414 102.74104309 C220.88548546 105.09993637 220.88548546 105.09993637 221 108 C230.9 108 240.8 108 251 108 C249.5243463 100.38299832 249.5243463 100.38299832 247.67138672 92.91748047 C247.43128876 92.05734344 247.1911908 91.19720642 246.94381714 90.31100464 C246.69165436 89.42204498 246.43949158 88.53308533 246.1796875 87.6171875 C245.91616486 86.67690704 245.65264221 85.73662659 245.38113403 84.76785278 C244.54923481 81.8025779 243.712212 78.83877873 242.875 75.875 C242.30564831 73.84905421 241.73663476 71.82301336 241.16796875 69.796875 C239.78254865 64.86347684 238.39253571 59.93139415 237 55 C236.34 55 235.68 55 235 55 Z " fill="#293D6F" transform="translate(1317,2121)"/>
<path d="M0 0 C16.17 0 32.34 0 49 0 C51.206875 3.83625 53.41375 7.6725 55.6875 11.625 C60.54069614 20.04652112 65.42042461 28.45012422 70.375 36.8125 C70.88635498 37.67673584 71.39770996 38.54097168 71.92456055 39.43139648 C74.32575584 43.48838625 76.72876139 47.54428 79.13769531 51.59667969 C81.05238229 54.818573 82.96096881 58.04402546 84.86651611 61.27133179 C85.60955259 62.52744393 86.35456067 63.78239235 87.10174561 65.03604126 C88.15642731 66.80612408 89.20384997 68.58033355 90.25 70.35546875 C90.85328125 71.37278076 91.4565625 72.39009277 92.078125 73.43823242 C94.63024335 78.16801578 96.7760581 83.10732781 99 88 C99.33 58.96 99.66 29.92 100 0 C108.064375 -0.020625 116.12875 -0.04125 124.4375 -0.0625 C126.98654053 -0.071604 129.53558105 -0.08070801 132.16186523 -0.09008789 C134.16910754 -0.09300688 136.17635043 -0.09555548 138.18359375 -0.09765625 C139.23647583 -0.10277222 140.28935791 -0.10788818 141.37414551 -0.11315918 C142.36885864 -0.11328003 143.36357178 -0.11340088 144.38842773 -0.11352539 C145.25668686 -0.115746 146.12494598 -0.11796661 147.01951599 -0.12025452 C149 0 149 0 150 1 C150.09904686 3.08596947 150.12632335 5.17535234 150.12698364 7.26367188 C150.12854363 7.92535622 150.13010362 8.58704056 150.13171089 9.26877594 C150.13572271 11.5021228 150.13253056 13.73540255 150.12939453 15.96875 C150.13074849 17.56331421 150.13252839 19.15787811 150.13470459 20.75244141 C150.13927955 25.09529379 150.13748911 29.43812252 150.1343255 33.78097534 C150.13180222 38.31557277 150.13413935 42.85016812 150.13571167 47.38476562 C150.13753346 55.0013058 150.13512681 62.61783629 150.13037109 70.234375 C150.12492846 79.05316188 150.12669111 87.87192565 150.1321975 96.69071198 C150.13672836 104.24822437 150.13737931 111.80572979 150.13475883 119.3632431 C150.13319591 123.88319783 150.1330027 128.40314167 150.13629532 132.9230957 C150.13917365 137.17145882 150.13719905 141.41979199 150.13140106 145.66815186 C150.13007326 147.23191274 150.13046792 148.79567613 150.13266373 150.35943604 C150.13537445 152.48510132 150.13199511 154.61066914 150.12698364 156.73632812 C150.1264181 158.52496277 150.1264181 158.52496277 150.12584114 160.34973145 C150 163 150 163 149 164 C108.37413785 170.23546859 108.37413785 170.23546859 96.48535156 162.00927734 C91.21468089 156.56305615 88.86143596 149.79566212 86.43066406 142.73046875 C84.15129021 136.78698197 80.83077226 131.54911541 77.49768066 126.14797974 C75.64943815 123.12627303 73.87983277 120.05930421 72.1015625 116.99609375 C69.49709474 112.53524761 66.86641721 108.09085001 64.2109375 103.66015625 C63.62393066 102.67813232 63.03692383 101.6961084 62.43212891 100.68432617 C61.35848754 98.89123601 60.28047604 97.10075042 59.19677734 95.3137207 C55.14323781 88.53233178 51.50385517 81.51156551 49 74 C49 103.7 49 133.4 49 164 C32.83 164 16.66 164 0 164 C0 109.88 0 55.76 0 0 Z M100 92 C101 94 101 94 101 94 Z " fill="#293D6F" transform="translate(1996,2121)"/>
<path d="M0 0 C107.33173077 0 107.33173077 0 125 15 C126.45792969 16.14662109 126.45792969 16.14662109 127.9453125 17.31640625 C141.64724306 28.77814598 147.78163361 48.47419391 149.80151367 65.56298828 C152.02740785 92.8924787 149.67815177 120.13323342 131.8125 142.125 C118.50765545 156.59693618 100.14959221 163.27889717 80.85671806 164.09012032 C78.69020229 164.1213576 76.5258434 164.12398723 74.35913086 164.11352539 C73.53533463 164.11364593 72.71153841 164.11376646 71.86277866 164.11389065 C69.23010497 164.11315192 66.59750456 164.10557176 63.96484375 164.09765625 C62.32588739 164.0961836 60.68693056 164.09516488 59.04797363 164.09460449 C53.01114186 164.08938903 46.97432019 164.07542779 40.9375 164.0625 C27.428125 164.041875 13.91875 164.02125 0 164 C0 109.88 0 55.76 0 0 Z M52 42 C52 68.4 52 94.8 52 122 C72.37407119 123.05067417 72.37407119 123.05067417 90 115 C98.36794477 106.63205523 98.19759046 93.93341399 98.25 82.875 C98.270625 81.81023438 98.29125 80.74546875 98.3125 79.6484375 C98.36745042 68.3286505 96.63730427 57.7522392 89 49 C78.37779008 40.36945444 65.02182359 42 52 42 Z " fill="#293D6F" transform="translate(1549,2341)"/>
<path d="M0 0 C17.16 0 34.32 0 52 0 C52 18.48 52 36.96 52 56 C67.18 56 82.36 56 98 56 C98 37.52 98 19.04 98 0 C115.16 0 132.32 0 150 0 C150 54.12 150 108.24 150 164 C132.84 164 115.68 164 98 164 C98 143.21 98 122.42 98 101 C82.82 101 67.64 101 52 101 C52 121.79 52 142.58 52 164 C34.84 164 17.68 164 0 164 C0 109.88 0 55.76 0 0 Z " fill="#293D6F" transform="translate(1023,2341)"/>
<path d="M0 0 C0.74109512 0.00045319 1.48219025 0.00090637 2.2457428 0.00137329 C3.41209259 -0.00366463 3.41209259 -0.00366463 4.602005 -0.00880432 C7.1950996 -0.01836394 9.78812967 -0.02026158 12.38124084 -0.02133179 C14.19277981 -0.02454685 16.00431851 -0.02791111 17.81585693 -0.03141785 C21.63347472 -0.03742568 25.45106984 -0.03925665 29.26869202 -0.03866577 C34.103882 -0.0385654 38.93892094 -0.05207817 43.77407551 -0.06943798 C47.52963897 -0.08070989 51.28516806 -0.08258021 55.04074669 -0.08205605 C56.81889034 -0.08321883 58.5970354 -0.087542 60.37516212 -0.09538841 C69.82581697 -0.13310337 79.16308347 0.12380307 88.57337952 1.04776001 C89.78520511 1.16648201 89.78520511 1.16648201 91.02151203 1.28760242 C104.2053007 2.71089895 117.8448107 5.70385581 126.83045959 16.14663696 C127.32288147 16.65194946 127.81530334 17.15726196 128.32264709 17.67788696 C136.48923028 26.94147386 137.49836657 40.60993947 137.15077209 52.45132446 C136.07768597 64.83107414 131.32362486 75.05837988 121.83045959 83.14663696 C119.54389361 84.9072482 117.22629345 86.5331162 114.83045959 88.14663696 C115.62710022 88.48694946 116.42374084 88.82726196 117.24452209 89.17788696 C126.08858062 93.22334439 130.98457164 97.22920635 134.64295959 106.27163696 C136.69777253 112.07492684 137.02106537 118.11138713 137.29530334 124.21304321 C137.37377849 125.76579282 137.45256386 127.31852678 137.53163147 128.87124634 C137.65139703 131.29582266 137.76847981 133.72044691 137.88002014 136.14541626 C137.98991058 138.50174376 138.11061294 140.85732587 138.23280334 143.21304321 C138.26309128 143.93399673 138.29337921 144.65495026 138.32458496 145.39775085 C138.53700267 149.34324723 138.97828207 152.62729179 140.83045959 156.14663696 C141.49045959 156.47663696 142.15045959 156.80663696 142.83045959 157.14663696 C142.83045959 159.45663696 142.83045959 161.76663696 142.83045959 164.14663696 C125.34045959 164.14663696 107.85045959 164.14663696 89.83045959 164.14663696 C87.58437635 152.91622076 87.58437635 152.91622076 87.48670959 147.10757446 C87.45706116 145.86749634 87.42741272 144.62741821 87.39686584 143.34976196 C87.35245953 140.78986848 87.30818952 138.22997262 87.26405334 135.67007446 C87.0483351 123.94346363 87.0483351 123.94346363 82.83045959 113.14663696 C76.01790013 108.03646231 67.37942378 108.4894639 59.26795959 108.39663696 C54.83358459 108.31413696 50.39920959 108.23163696 45.83045959 108.14663696 C45.83045959 126.62663696 45.83045959 145.10663696 45.83045959 164.14663696 C28.67045959 164.14663696 11.51045959 164.14663696 -6.16954041 164.14663696 C-6.19208575 142.91134651 -6.2105186 121.6760657 -6.22135258 100.44076633 C-6.22651596 90.58156977 -6.23355945 80.72238116 -6.24497986 70.8631897 C-6.25492541 62.2731588 -6.26139352 53.68313365 -6.2636289 45.09309715 C-6.26493623 40.54182501 -6.26802346 35.99056933 -6.27527046 31.43930244 C-6.28202865 27.16058877 -6.28415778 22.88189843 -6.28264809 18.60317993 C-6.28292451 17.0281302 -6.28493082 15.45307973 -6.28874588 13.87803459 C-6.29368 11.73699444 -6.29253976 9.59604381 -6.28979492 7.45500183 C-6.29071671 6.25390557 -6.29163851 5.05280931 -6.29258823 3.8153162 C-6.07837923 -0.8304798 -4.15657649 0.02642593 0 0 Z M45.83045959 40.14663696 C45.83045959 50.04663696 45.83045959 59.94663696 45.83045959 70.14663696 C50.2601742 70.21581122 54.68798712 70.27544824 59.11781311 70.31143188 C60.62210976 70.32644418 62.1263632 70.3468605 63.63050842 70.37295532 C65.80273655 70.40967512 67.9743821 70.42643858 70.14686584 70.43960571 C72.10281677 70.46317139 72.10281677 70.46317139 74.09828186 70.48721313 C79.0521185 70.03515569 83.19951094 68.88631553 86.70545959 65.14663696 C89.40211853 60.35257663 89.41455419 55.50361882 88.83045959 50.14663696 C86.93517484 45.97701049 85.53266298 44.53086146 81.51795959 42.33413696 C73.68400697 39.81133866 66.05453008 40.02428509 57.89295959 40.08413696 C51.92202209 40.11507446 51.92202209 40.11507446 45.83045959 40.14663696 Z " fill="#293D70" transform="translate(1654.1695404052734,2120.8533630371094)"/>
<path d="M0 0 C13.4475 -0.04125 26.895 -0.0825 40.75 -0.125 C44.95331055 -0.14320801 49.15662109 -0.16141602 53.48730469 -0.18017578 C58.72900391 -0.18920898 58.72900391 -0.18920898 61.20391846 -0.19088745 C62.88638374 -0.19390411 64.56884547 -0.20082027 66.25128174 -0.21115112 C115.74646695 -0.49914966 115.74646695 -0.49914966 132 15 C140.9891802 26.14495645 143.5935969 38.46954713 142.875 52.6875 C141.73766 63.22081935 138.66254268 72.46284438 131 80 C127.45132951 82.85519714 123.79415871 85.48199594 120 88 C120.79664063 88.35191406 121.59328125 88.70382813 122.4140625 89.06640625 C130.28105891 92.73192891 135.7374949 95.69153333 139.20703125 103.83203125 C143.06016639 114.65620948 143.23742195 125.25475906 143.51757812 136.625 C143.82815654 146.45034815 143.82815654 146.45034815 146 156 C146.66 156.33 147.32 156.66 148 157 C148 159.31 148 161.62 148 164 C130.84 164 113.68 164 96 164 C92.63084977 148.27729893 92.63084977 148.27729893 92.59375 142.7890625 C92.57183594 141.60699219 92.54992188 140.42492188 92.52734375 139.20703125 C92.50893568 136.79557428 92.49070996 134.3841159 92.47265625 131.97265625 C92.34840326 125.31415776 92.05198632 119.98359267 89 114 C78.7560273 105.50838854 62.6400359 108.43111244 51 108 C51 126.48 51 144.96 51 164 C34.17 164 17.34 164 0 164 C0 109.88 0 55.76 0 0 Z M51 41 C51 50.9 51 60.8 51 71 C71.82430067 72.71060983 71.82430067 72.71060983 90.78125 66.58984375 C93.74678865 63.12830832 95.00424869 60.40050774 94.99609375 55.79296875 C94.64439251 51.28071672 94.19082259 47.390249 91 44 C82.73682379 40.30073557 74.82954974 40.65443777 65.9375 40.8125 C61.008125 40.874375 56.07875 40.93625 51 41 Z " fill="#293D6F" transform="translate(1202,2341)"/>
<path d="M0 0 C17.16 0 34.32 0 52 0 C52.02578125 7.90839844 52.0515625 15.81679687 52.078125 23.96484375 C52.10329887 28.98245407 52.12963609 34.00000443 52.16015625 39.01757812 C52.20846196 46.97730843 52.25251778 54.93685863 52.27099609 62.89672852 C52.28616779 69.31596163 52.32062356 75.73483102 52.36830902 82.15390205 C52.38311732 84.59979652 52.39104069 87.04574291 52.39188385 89.49168205 C52.39425678 92.92445278 52.42136506 96.35622105 52.45410156 99.78881836 C52.4490712 100.79439285 52.44404083 101.79996735 52.43885803 102.83601379 C52.53317827 109.25163313 53.59467627 114.48013628 57 120 C63.19507205 125.61878628 70.50680222 126.2572727 78.5625 125.875 C83.97372754 125.31870558 88.71564161 124.52457069 93 121 C96.77804352 116.24982832 98.11065518 111.2951513 98.15821838 105.34295654 C98.1680072 104.41190094 98.17779602 103.48084534 98.18788147 102.52157593 C98.19363693 101.50737579 98.1993924 100.49317566 98.20532227 99.44824219 C98.21522186 98.37476532 98.22512146 97.30128845 98.23532104 96.19528198 C98.26691722 92.64583545 98.29168616 89.09637553 98.31640625 85.546875 C98.33697739 83.0863612 98.35797391 80.62585092 98.37937927 78.16534424 C98.43458335 71.68809867 98.48400004 65.21082129 98.53222656 58.73352051 C98.59128398 50.96246866 98.65750285 43.19147496 98.72252655 35.42047119 C98.82051513 23.61368296 98.90938565 11.8068575 99 0 C116.16 0 133.32 0 151 0 C151.12032643 27.59931736 151.12032643 27.59931736 151.14648438 39.43554688 C151.16436274 47.48695927 151.18497115 55.5382694 151.22631836 63.58959961 C151.2591037 70.08650271 151.27689328 76.58329509 151.28463173 83.08027458 C151.29014097 85.54917072 151.3008984 88.01806134 151.31719017 90.48690987 C151.4574452 112.63797624 150.52726065 132.59784904 135 150 C115.9333753 166.75465374 90.51650923 170.3808826 65.96972656 168.87548828 C49.40292268 167.66224317 34.58971881 163.83690943 21 154 C20.23042969 153.44441406 19.46085937 152.88882813 18.66796875 152.31640625 C6.81909282 142.86902333 1.80955304 128.53957089 0 114 C-0.24140971 110.05313526 -0.2548421 106.12610776 -0.22705078 102.17285156 C-0.22734283 101.0591922 -0.22763489 99.94553284 -0.22793579 98.79812622 C-0.22655616 95.16220977 -0.21105992 91.52650511 -0.1953125 87.890625 C-0.1915775 85.35186881 -0.18873283 82.81311118 -0.18673706 80.27435303 C-0.17991314 74.30358704 -0.16419323 68.33288761 -0.14403808 62.36215568 C-0.11540824 53.68996426 -0.10505852 45.0177469 -0.09242249 36.34552002 C-0.07309675 24.23028509 -0.03474736 12.11524469 0 0 Z " fill="#293D6F" transform="translate(1816,2121)"/>
<path d="M0 0 C1.35568336 0.00333092 1.35568336 0.00333092 2.73875427 0.00672913 C3.75973709 0.00680466 4.78071991 0.00688019 5.8326416 0.00695801 C6.94304306 0.01211929 8.05344452 0.01728058 9.19749451 0.02259827 C10.89336952 0.02472069 10.89336952 0.02472069 12.62350464 0.02688599 C16.25105891 0.03250433 19.8785525 0.04505994 23.50608826 0.05775452 C25.95856133 0.06276715 28.41103536 0.06733047 30.86351013 0.07142639 C36.89022371 0.08247971 42.91690165 0.09923568 48.94358826 0.12025452 C48.94597661 0.66763968 48.94836496 1.21502483 48.95082569 1.77899742 C49.01011608 15.13495188 49.08594097 28.49072584 49.17930317 41.84648705 C49.2239595 48.30540587 49.26322629 54.7642623 49.2900238 61.22328186 C49.31610369 67.46092639 49.35653981 73.69833023 49.40677452 79.93582535 C49.42341146 82.31111778 49.43494543 84.68645182 49.44120216 87.06179428 C49.45087754 90.39842999 49.47897896 93.73445428 49.51121521 97.07093811 C49.50978012 98.04486511 49.50834503 99.01879211 49.50686646 100.02223206 C49.61040769 107.64012219 50.48190098 115.01075479 55.31858826 121.12025452 C62.27547594 126.42074037 70.78277519 126.85243943 79.24436951 125.84681702 C84.83549161 124.85075157 88.05032275 123.29161041 91.94358826 119.12025452 C95.96327888 111.49670334 96.09898548 104.11936457 96.14891052 95.70863342 C96.15881012 94.67387878 96.16870972 93.63912415 96.1789093 92.57301331 C96.21041148 89.16430422 96.23523708 85.75558121 96.25999451 82.34681702 C96.28057377 79.97884262 96.3015705 77.61087181 96.32296753 75.24290466 C96.37808769 69.01886409 96.42754126 62.79479091 96.47581482 56.57069397 C96.53494936 49.09828129 96.60112191 41.62592803 96.66611481 34.15356445 C96.76399776 22.80916418 96.8529405 11.46472531 96.94358826 0.12025452 C113.77358826 0.12025452 130.60358826 0.12025452 147.94358826 0.12025452 C148.10424293 28.71678642 148.10424293 28.71678642 148.14460373 42.93835258 C148.16668812 50.60081388 148.19463443 58.26309921 148.24534607 65.9254303 C148.28982498 72.64928692 148.31278197 79.37291379 148.32309723 86.09692383 C148.33044051 88.65152986 148.34477906 91.20612647 148.36650848 93.76065063 C148.54203766 115.2675988 147.74292737 134.02562205 132.13108826 150.49525452 C114.06218051 167.45181209 88.22625156 169.99596933 64.47825623 169.26087952 C47.19079829 168.30176029 32.29041526 163.87530859 17.94358826 154.12025452 C17.31452576 153.69873108 16.68546326 153.27720764 16.03733826 152.84291077 C5.5790307 145.02699475 -0.14757139 130.65836761 -2.05641174 118.12025452 C-2.87923736 110.45355881 -3.20245241 102.84143888 -3.18580627 95.13514709 C-3.18755859 94.11087616 -3.18931091 93.08660522 -3.19111633 92.03129578 C-3.19546908 88.69244118 -3.19262274 85.35364076 -3.18922424 82.01478577 C-3.1898986 79.6802062 -3.19086973 77.34562669 -3.19212341 75.01104736 C-3.19359096 70.14371566 -3.19147413 65.27640242 -3.18678284 60.40907288 C-3.18105108 54.15654714 -3.18439213 47.90406402 -3.1903553 41.6515398 C-3.19395672 36.84334996 -3.19282488 32.03517035 -3.19022751 27.22698021 C-3.18955888 24.91957787 -3.19038445 22.6121746 -3.19270706 20.30477333 C-3.19523044 17.09716419 -3.19139908 13.88962592 -3.18580627 10.68202209 C-3.18783051 9.72264236 -3.18985474 8.76326263 -3.19194031 7.77481079 C-3.18912048 6.90729187 -3.18630066 6.03977295 -3.18339539 5.14596558 C-3.18301836 4.38816709 -3.18264133 3.6303686 -3.18225288 2.84960651 C-2.9952208 0.27934768 -2.56091131 0.14975656 0 0 Z " fill="#293D6F" transform="translate(1372.056411743164,2340.8797454833984)"/>
<path d="M0 0 C0.9215538 0.00222061 1.8431076 0.00444122 2.79258728 0.00672913 C3.83359085 0.00680466 4.87459442 0.00688019 5.94714355 0.00695801 C7.07941879 0.01211929 8.21169403 0.01728058 9.37828064 0.02259827 C11.10744972 0.02472069 11.10744972 0.02472069 12.87155151 0.02688599 C16.57043503 0.03250446 20.26925903 0.0450601 23.96812439 0.05775452 C26.46877456 0.06276714 28.96942567 0.06733045 31.47007751 0.07142639 C37.61528027 0.0824799 43.76044808 0.099236 49.90562439 0.12025452 C53.64303722 8.9696015 56.66055409 18.05407047 59.71031189 27.15541077 C60.27173951 28.82374464 60.83344195 30.49198605 61.395401 32.16014099 C62.58103683 35.68122372 63.76502125 39.20285526 64.94761658 42.72496033 C67.70603457 50.94006689 70.4725879 59.15243495 73.23842621 67.36504555 C74.14438779 70.05539878 75.05001412 72.74586471 75.95561218 75.43634033 C80.23776418 88.15537849 84.55170896 100.86308 88.90562439 113.55775452 C94.67237824 130.37935269 100.30491554 147.24244271 105.90562439 164.12025452 C88.74562439 164.12025452 71.58562439 164.12025452 53.90562439 164.12025452 C48.90562439 146.12025452 48.90562439 146.12025452 48.90562439 143.12025452 C32.40562439 143.12025452 15.90562439 143.12025452 -1.09437561 143.12025452 C-2.41437561 148.40025452 -3.73437561 153.68025452 -5.09437561 159.12025452 C-5.75437561 160.77025452 -6.41437561 162.42025452 -7.09437561 164.12025452 C-23.92437561 164.12025452 -40.75437561 164.12025452 -58.09437561 164.12025452 C-53.09437561 149.12025452 -53.09437561 149.12025452 -51.35169983 143.89442444 C-48.63367594 135.74368175 -45.91803704 127.59216022 -43.20898438 119.43843079 C-35.13315231 95.13274049 -26.98170798 70.8556673 -18.66732788 46.63049316 C-16.55638405 40.47719001 -14.46026755 34.31892879 -12.36781311 28.15931702 C-11.46372931 25.50185812 -10.55933066 22.84450666 -9.6547699 20.18721008 C-9.07666182 18.48714425 -8.49952049 16.78674934 -7.92338562 15.08601379 C-7.13278368 12.7527619 -6.33861366 10.42075426 -5.54359436 8.08900452 C-5.30889435 7.39328339 -5.07419434 6.69756226 -4.8323822 5.98075867 C-2.84185959 0.16317343 -2.84185959 0.16317343 0 0 Z M22.90562439 55.12025452 C20.90438743 62.02323506 18.91140945 68.92856086 16.92417908 75.83558655 C16.24704783 78.18542025 15.56802167 80.53470876 14.8870697 82.88343811 C13.90910669 86.25783819 12.93795555 89.63413461 11.96812439 93.01087952 C11.66189148 94.06204956 11.35565857 95.1132196 11.04014587 96.19624329 C10.75985535 97.17695801 10.47956482 98.15767273 10.19078064 99.16810608 C9.94207214 100.02970337 9.69336365 100.89130066 9.43711853 101.77900696 C8.75803742 104.37024323 8.75803742 104.37024323 8.90562439 108.12025452 C18.80562439 108.12025452 28.70562439 108.12025452 38.90562439 108.12025452 C37.42997069 100.50325284 37.42997069 100.50325284 35.57701111 93.03773499 C35.33691315 92.17759796 35.09681519 91.31746094 34.84944153 90.43125916 C34.59727875 89.5422995 34.34511597 88.65333984 34.08531189 87.73744202 C33.82178925 86.79716156 33.5582666 85.8568811 33.28675842 84.8881073 C32.4548592 81.92283242 31.61783639 78.95903325 30.78062439 75.99525452 C30.2112727 73.96930873 29.64225915 71.94326788 29.07359314 69.91712952 C27.68817304 64.98373136 26.2981601 60.05164867 24.90562439 55.12025452 C24.24562439 55.12025452 23.58562439 55.12025452 22.90562439 55.12025452 Z " fill="#293D6F" transform="translate(2362.0943756103516,2340.8797454833984)"/>
<path d="M0 0 C0.9215538 0.00222061 1.8431076 0.00444122 2.79258728 0.00672913 C3.83359085 0.00680466 4.87459442 0.00688019 5.94714355 0.00695801 C7.07941879 0.01211929 8.21169403 0.01728058 9.37828064 0.02259827 C11.10744972 0.02472069 11.10744972 0.02472069 12.87155151 0.02688599 C16.57043503 0.03250446 20.26925903 0.0450601 23.96812439 0.05775452 C26.46877456 0.06276714 28.96942567 0.06733045 31.47007751 0.07142639 C37.61528027 0.0824799 43.76044808 0.099236 49.90562439 0.12025452 C58.80750574 25.39535061 67.51289581 50.73358044 76.08161545 76.1232605 C82.67143089 95.64915183 89.33481571 115.14626003 96.20054626 134.57728577 C96.48446228 135.38380585 96.7683783 136.19032593 97.06089783 137.02128601 C97.56750261 138.45981476 98.07623843 139.89759704 98.58824158 141.33421326 C101.24110686 148.87233637 103.51656623 156.47526839 105.90562439 164.12025452 C88.74562439 164.12025452 71.58562439 164.12025452 53.90562439 164.12025452 C48.90562439 146.12025452 48.90562439 146.12025452 48.90562439 143.12025452 C32.40562439 143.45025452 15.90562439 143.78025452 -1.09437561 144.12025452 C-3.07437561 150.72025452 -5.05437561 157.32025452 -7.09437561 164.12025452 C-23.92437561 164.12025452 -40.75437561 164.12025452 -58.09437561 164.12025452 C-56.10899121 156.84051172 -54.05084747 149.73846549 -51.61000061 142.62025452 C-51.27806198 141.64399612 -50.94612335 140.66773773 -50.60412598 139.66189575 C-49.52102586 136.48014901 -48.43286182 133.30016229 -47.34437561 130.12025452 C-46.5757796 127.86695978 -45.80730819 125.61362253 -45.03895569 123.36024475 C-40.05788481 108.77083291 -35.00359993 94.20792816 -29.89692688 79.6620636 C-25.77571977 67.91810071 -21.7333599 56.14877281 -17.74671936 44.35853577 C-17.51755766 43.68102076 -17.28839596 43.00350574 -17.05228996 42.30545998 C-14.7591185 35.52465069 -12.46976351 28.74257624 -10.18921375 21.95751095 C-9.14133321 18.84182701 -8.09008287 15.72727908 -7.03968811 12.61244202 C-6.65501877 11.46363052 -6.27034943 10.31481903 -5.87402344 9.13119507 C-5.34525352 7.56512764 -5.34525352 7.56512764 -4.80580139 5.96742249 C-4.49796722 5.05121124 -4.19013306 4.135 -3.87297058 3.19102478 C-2.73215144 0.15687422 -2.73215144 0.15687422 0 0 Z M22.90562439 54.12025452 C20.76757184 61.64944207 18.63153684 69.17919983 16.49693298 76.70936584 C15.77001096 79.27334404 15.04232574 81.83710218 14.3143158 84.40077209 C13.27061296 88.07645207 12.22857485 91.75260038 11.18687439 95.42884827 C10.8587677 96.58299728 10.53066101 97.7371463 10.19261169 98.92626953 C9.89230042 99.98729385 9.59198914 101.04831818 9.28257751 102.14149475 C8.88286743 103.55047279 8.88286743 103.55047279 8.4750824 104.98791504 C7.86262181 106.91343313 7.86262181 106.91343313 7.90562439 108.12025452 C18.13562439 108.12025452 28.36562439 108.12025452 38.90562439 108.12025452 C36.36047742 96.98671625 33.58728001 85.97227729 30.44126892 74.99403381 C29.76667229 72.63394279 29.10359478 70.27078771 28.44078064 67.90736389 C28.01047461 66.39610139 27.57951132 64.88502583 27.14781189 63.37416077 C26.95194489 62.67223099 26.75607788 61.97030121 26.55427551 61.24710083 C25.41757553 57.30627182 25.41757553 57.30627182 22.90562439 54.12025452 Z " fill="#293D6F" transform="translate(2366.0943756103516,2120.8797454833984)"/>
<path d="M0 0 C0.9215538 0.00222061 1.8431076 0.00444122 2.79258728 0.00672913 C3.83359085 0.00680466 4.87459442 0.00688019 5.94714355 0.00695801 C7.07941879 0.01211929 8.21169403 0.01728058 9.37828064 0.02259827 C11.10744972 0.02472069 11.10744972 0.02472069 12.87155151 0.02688599 C16.57043503 0.03250446 20.26925903 0.0450601 23.96812439 0.05775452 C26.46877456 0.06276714 28.96942567 0.06733045 31.47007751 0.07142639 C37.61528027 0.0824799 43.76044808 0.099236 49.90562439 0.12025452 C50.31699646 1.32931458 50.72836853 2.53837463 51.15220642 3.78407288 C58.67439413 25.89136958 66.20019809 47.99740247 73.75123596 70.09486389 C77.18060581 80.13096402 80.60424733 90.16898217 84.01890564 100.21009827 C84.54005447 101.74233536 84.54005447 101.74233536 85.07173157 103.30552673 C86.46388941 107.39877672 87.8560243 111.49203396 89.24693298 115.58570862 C94.03905081 129.69007376 94.03905081 129.69007376 98.91734314 143.76478577 C99.34684265 144.9933429 99.77634216 146.22190002 100.21885681 147.48768616 C100.98156711 149.66159095 101.74832086 151.83408364 102.52012634 154.004776 C102.8432782 154.92460266 103.16643005 155.84442932 103.49937439 156.79212952 C103.77458923 157.56653381 104.04980408 158.34093811 104.33335876 159.1388092 C104.90562439 161.12025452 104.90562439 161.12025452 104.90562439 164.12025452 C88.07562439 164.12025452 71.24562439 164.12025452 53.90562439 164.12025452 C48.90562439 147.12025452 48.90562439 147.12025452 48.90562439 143.12025452 C32.40562439 143.45025452 15.90562439 143.78025452 -1.09437561 144.12025452 C-3.07437561 150.72025452 -5.05437561 157.32025452 -7.09437561 164.12025452 C-23.92437561 164.12025452 -40.75437561 164.12025452 -58.09437561 164.12025452 C-54.71888361 151.74345053 -54.71888361 151.74345053 -53.06410217 146.86244202 C-52.69172928 145.75912033 -52.31935638 144.65579865 -51.93569946 143.51904297 C-51.53946884 142.35619278 -51.14323822 141.19334259 -50.73500061 139.99525452 C-50.31391525 138.75155594 -49.8928299 137.50785736 -49.45898438 136.22647095 C-48.32631449 132.8822051 -47.18930026 129.53943244 -46.05115891 126.1970253 C-45.33894576 124.10429976 -44.62802474 122.01113967 -43.91752625 119.91783142 C-37.54167128 101.1340416 -31.09184621 82.37753988 -24.51869202 63.66175842 C-21.18085814 54.15001814 -17.89188298 44.62321259 -14.65296936 35.07728577 C-14.09596596 33.43600456 -14.09596596 33.43600456 -13.52770996 31.76156616 C-11.71581909 26.41866997 -9.90865352 21.07421877 -8.10682678 15.72792053 C-7.45948955 13.81441338 -6.81211215 11.9009198 -6.16468811 9.98744202 C-5.86755417 9.10123672 -5.57042023 8.21503143 -5.26428223 7.30197144 C-2.8447951 0.16334198 -2.8447951 0.16334198 0 0 Z M22.90562439 54.12025452 C20.76757184 61.64944207 18.63153684 69.17919983 16.49693298 76.70936584 C15.77001096 79.27334404 15.04232574 81.83710218 14.3143158 84.40077209 C13.27061296 88.07645207 12.22857485 91.75260038 11.18687439 95.42884827 C10.8587677 96.58299728 10.53066101 97.7371463 10.19261169 98.92626953 C9.89230042 99.98729385 9.59198914 101.04831818 9.28257751 102.14149475 C8.88286743 103.55047279 8.88286743 103.55047279 8.4750824 104.98791504 C7.86262181 106.91343313 7.86262181 106.91343313 7.90562439 108.12025452 C18.13562439 108.12025452 28.36562439 108.12025452 38.90562439 108.12025452 C36.22894578 97.25169438 33.4232234 86.43099621 30.44126892 75.64222717 C29.76825013 73.2003578 29.10460895 70.75604244 28.44078064 68.31166077 C28.0103628 66.75030513 27.57939492 65.18910098 27.14781189 63.62806702 C26.95194489 62.9011264 26.75607788 62.17418579 26.55427551 61.42521667 C25.44489859 57.38488395 25.44489859 57.38488395 22.90562439 54.12025452 Z " fill="#293D6F" transform="translate(2660.0943756103516,2340.8797454833984)"/>
<path d="M0 0 C17.16 0 34.32 0 52 0 C56.49963083 11.24907707 56.49963083 11.24907707 58.43505859 17.00219727 C58.75376451 17.94562201 58.75376451 17.94562201 59.07890892 18.90810585 C59.77137964 20.9599978 60.45991516 23.01318642 61.1484375 25.06640625 C61.64233421 26.5321783 62.13650151 27.9978592 62.63092041 29.4634552 C63.67503485 32.56005715 64.7175037 35.65720582 65.75860596 38.75482178 C67.38870303 43.60462982 69.02272977 48.45310746 70.65771484 53.30126953 C70.92840853 54.10396523 71.19910221 54.90666092 71.47799873 55.73368073 C72.02206985 57.34699237 72.5661556 58.96029907 73.1102562 60.57360077 C73.91971129 62.97405225 74.7288277 65.37461766 75.53787231 67.77520752 C79.54076982 79.6507655 83.56780026 91.51787338 87.625 103.375 C88.02319946 104.53952194 88.02319946 104.53952194 88.42944336 105.72756958 C90.59807291 112.06957921 92.77008192 118.41042944 94.94262695 124.75109863 C96.93465637 130.56515932 98.9254651 136.37963528 100.91473389 142.19464111 C101.85420956 144.93926201 102.79546948 147.68326655 103.73681641 150.42724609 C104.30119714 152.07646647 104.86549234 153.72571613 105.4296875 155.375 C105.82223724 156.51686264 105.82223724 156.51686264 106.22271729 157.68179321 C108 162.88615022 108 162.88615022 108 164 C91.17 164 74.34 164 57 164 C54 156 54 156 51 143 C34.5 143 18 143 1 143 C-0.32 148.28 -1.64 153.56 -3 159 C-3.66 160.65 -4.32 162.3 -5 164 C-21.83 164 -38.66 164 -56 164 C-45.22436629 131.52748218 -34.25616019 99.12093378 -23.26269531 66.72167969 C-22.09657648 63.28465041 -20.93103332 59.84742649 -19.765625 56.41015625 C-18.17096235 51.70801677 -16.57360212 47.00680368 -14.97357178 42.30648804 C-14.42452919 40.69282885 -13.87618335 39.07893236 -13.32867432 37.4647522 C-9.06680246 24.90488505 -4.53460674 12.47016854 0 0 Z M25 55 C22.99876304 61.90298054 21.00578506 68.80830634 19.01855469 75.71533203 C18.34142344 78.06516573 17.66239728 80.41445424 16.98144531 82.76318359 C16.0034823 86.13758368 15.03233116 89.51388009 14.0625 92.890625 C13.75626709 93.94179504 13.45003418 94.99296509 13.13452148 96.07598877 C12.85423096 97.05670349 12.57394043 98.03741821 12.28515625 99.04785156 C12.03644775 99.90944885 11.78773926 100.77104614 11.53149414 101.65875244 C10.85241303 104.24998871 10.85241303 104.24998871 11 108 C20.9 108 30.8 108 41 108 C39.67239847 100.69819159 38.24855093 93.8099207 36.1796875 86.73828125 C35.91616486 85.82161179 35.65264221 84.90494232 35.38113403 83.960495 C34.55077368 81.0763537 33.71303415 78.19441974 32.875 75.3125 C32.30549674 73.33933489 31.73648205 71.36602869 31.16796875 69.39257812 C29.78427838 64.59340552 28.39397286 59.79619555 27 55 C26.34 55 25.68 55 25 55 Z " fill="#293D6F" transform="translate(1760,2341)"/>
<path d="M0 0 C0.9215538 0.00222061 1.8431076 0.00444122 2.79258728 0.00672913 C3.83359085 0.00680466 4.87459442 0.00688019 5.94714355 0.00695801 C7.07941879 0.01211929 8.21169403 0.01728058 9.37828064 0.02259827 C11.10744972 0.02472069 11.10744972 0.02472069 12.87155151 0.02688599 C16.57043503 0.03250446 20.26925903 0.0450601 23.96812439 0.05775452 C26.46877456 0.06276714 28.96942567 0.06733045 31.47007751 0.07142639 C37.61528027 0.0824799 43.76044808 0.099236 49.90562439 0.12025452 C57.41160516 21.44485697 64.85608491 42.78557859 71.96812439 64.24525452 C76.59492235 78.20394958 81.27164285 92.14351958 86.03062439 106.05775452 C86.31803497 106.89882751 86.60544556 107.73990051 86.90156555 108.60646057 C89.77695257 117.01948332 92.66297729 125.42870685 95.57374573 133.82955933 C96.70915101 137.10725101 97.84156528 140.38597296 98.97392273 143.66471863 C99.76289282 145.94402855 100.55703632 148.22149073 101.35142517 150.49891663 C101.82546901 151.87000595 102.29927857 153.24117629 102.77281189 154.61244202 C103.39325378 156.39690735 103.39325378 156.39690735 104.02622986 158.21742249 C104.90562439 161.12025452 104.90562439 161.12025452 104.90562439 164.12025452 C88.07562439 164.12025452 71.24562439 164.12025452 53.90562439 164.12025452 C48.90562439 146.12025452 48.90562439 146.12025452 48.90562439 143.12025452 C32.40562439 143.45025452 15.90562439 143.78025452 -1.09437561 144.12025452 C-3.07437561 150.72025452 -5.05437561 157.32025452 -7.09437561 164.12025452 C-23.92437561 164.12025452 -40.75437561 164.12025452 -58.09437561 164.12025452 C-56.14520557 157.62302103 -54.16073286 151.17065804 -52.01234436 144.74134827 C-51.72197296 143.86886948 -51.43160156 142.99639069 -51.13243103 142.09747314 C-50.18404653 139.25029618 -49.23315646 136.40396498 -48.28187561 133.55775452 C-47.95146271 132.56773437 -47.6210498 131.57771423 -47.28062439 130.55769348 C-41.21798436 112.39574964 -35.05237831 94.27009954 -28.84446716 76.15739441 C-26.52232858 69.37874194 -24.21272787 62.59586888 -21.90687561 55.81166077 C-21.55241867 54.76903076 -21.19796173 53.72640076 -20.83276367 52.6521759 C-19.44087051 48.55760936 -18.04905827 44.46301624 -16.65885925 40.36787415 C-13.19579584 30.16745971 -9.71663742 19.97266998 -6.18421936 9.79603577 C-5.88786087 8.93592392 -5.59150238 8.07581207 -5.28616333 7.18963623 C-2.83598849 0.16283632 -2.83598849 0.16283632 0 0 Z M22.90562439 55.12025452 C20.76754205 62.50700817 18.6315103 69.89435249 16.49693298 77.28211975 C15.76987149 79.79755732 15.04233303 82.31285707 14.3143158 84.82801819 C13.27059296 88.43418707 12.22856214 92.04084108 11.18687439 95.64759827 C10.8587677 96.7798735 10.53066101 97.91214874 10.19261169 99.07873535 C9.89230042 100.11973892 9.59198914 101.16074249 9.28257751 102.23329163 C9.01610413 103.15484543 8.74963074 104.07639923 8.4750824 105.02587891 C7.86189553 106.9193468 7.86189553 106.9193468 7.90562439 108.12025452 C18.13562439 108.12025452 28.36562439 108.12025452 38.90562439 108.12025452 C36.35551144 96.97092347 33.5841191 85.93556754 30.44126892 74.93910217 C29.76580679 72.56824509 29.10324539 70.19399082 28.44078064 67.81947327 C28.01056115 66.30493139 27.57960151 64.79059951 27.14781189 63.27650452 C26.95194489 62.56941345 26.75607788 61.86232239 26.55427551 61.13380432 C26.06460442 59.44410572 25.4924449 57.77871791 24.90562439 56.12025452 C24.24562439 55.79025452 23.58562439 55.46025452 22.90562439 55.12025452 Z " fill="#293D6F" transform="translate(2060.0943756103516,2340.8797454833984)"/>
<path d="M0 0 C18.81 0 37.62 0 57 0 C66 18 75 36 84 54 C84.26451462 53.45622208 84.52902924 52.91244415 84.80155945 52.35218811 C87.57296516 46.65610092 90.34787331 40.96172967 93.12475586 35.26831055 C94.15851996 33.14764871 95.19141169 31.02656137 96.22338867 28.9050293 C97.71299793 25.84309466 99.20581223 22.78274029 100.69921875 19.72265625 C101.15463547 18.78478775 101.61005219 17.84691925 102.07926941 16.88063049 C102.5193483 15.98037643 102.95942719 15.08012238 103.4128418 14.15258789 C103.79256638 13.37315323 104.17229095 12.59371857 104.56352234 11.79066467 C106.61283114 7.80944461 108.8254376 3.91421233 111 0 C129.15 0 147.3 0 166 0 C165.01457357 4.92713217 163.33351565 8.35994276 160.875 12.625 C159.95790577 14.2458519 159.04126788 15.86696207 158.125 17.48828125 C157.62355469 18.37080566 157.12210938 19.25333008 156.60546875 20.16259766 C153.66373985 25.36162035 150.77298817 30.58901244 147.875 35.8125 C147.24207031 36.95122559 146.60914062 38.08995117 145.95703125 39.26318359 C142.60587835 45.29294912 139.26456841 51.32800337 135.9375 57.37109375 C135.59727814 57.98882156 135.25705627 58.60654938 134.90652466 59.24299622 C133.29253998 62.17381918 131.67991689 65.10536575 130.06982422 68.03833008 C129.16514404 69.68224731 129.16514404 69.68224731 128.2421875 71.359375 C127.93628189 71.93587799 127.63037628 72.51238098 127.31520081 73.10635376 C125.29639982 76.85860271 123.08632325 80.36481269 120.66040039 83.86938477 C110.10965192 99.71849316 109.19016718 113.95179232 109.64379883 132.32012939 C109.71784706 135.90784895 109.71620237 139.49561531 109.72070312 143.08398438 C109.7347333 150.06098906 109.86960006 157.02039639 110 164 C92.84 164 75.68 164 58 164 C58.10183594 159.90980469 58.20367188 155.81960937 58.30859375 151.60546875 C59.93604233 112.76108769 59.93604233 112.76108769 43.95410156 78.53857422 C40.83398968 74.48523546 38.50102503 70.04576152 36.0625 65.5625 C35.09707464 63.86844863 34.12693417 62.17707658 33.15234375 60.48828125 C26.74680869 49.33775298 20.35905801 38.17710101 14 27 C13.65723022 26.3975647 13.31446045 25.79512939 12.96130371 25.17443848 C10.63268742 21.07921031 8.31419895 16.97839272 6 12.875 C5.39430176 11.80797852 4.78860352 10.74095703 4.16455078 9.64160156 C3.61524902 8.66416992 3.06594727 7.68673828 2.5 6.6796875 C2.0153125 5.82101074 1.530625 4.96233398 1.03125 4.07763672 C0 2 0 2 0 0 Z " fill="#293D6F" transform="translate(2158,2121)"/>
<path d="M0 0 C18.81 0 37.62 0 57 0 C65.91 17.82 74.82 35.64 84 54 C93.15149182 35.78731544 93.15149182 35.78731544 102 17.4375 C102.87237979 15.58079788 103.74731818 13.72529544 104.625 11.87109375 C104.98851562 11.09693115 105.35203125 10.32276855 105.7265625 9.52514648 C107.36071829 6.28471832 109.19942984 3.15099777 111 0 C129.15 0 147.3 0 166 0 C165.17355606 4.1322197 164.62471751 6.05277841 162.62109375 9.5 C162.12053467 10.37156738 161.61997559 11.24313477 161.10424805 12.14111328 C160.55422119 13.0845459 160.00419434 14.02797852 159.4375 15 C158.24333779 17.0798951 157.05069927 19.16066558 155.859375 21.2421875 C155.22837891 22.34272461 154.59738281 23.44326172 153.94726562 24.57714844 C150.63741468 30.39511612 147.4129013 36.25997921 144.1875 42.125 C143.51553306 43.34533522 142.84349488 44.56563122 142.17138672 45.78588867 C140.80673269 48.26401571 139.44267768 50.7424711 138.07910156 53.22119141 C134.91485836 58.97291901 131.74694988 64.72262432 128.57730103 70.47137451 C127.60649136 72.23268769 126.63659791 73.99450578 125.66674805 75.75634766 C124.75082886 77.41802979 124.75082886 77.41802979 123.81640625 79.11328125 C123.21062744 80.24846191 122.60484863 81.38364258 121.98071289 82.55322266 C120.57653106 84.99673788 119.2427148 87.06707605 117.56420898 89.28662109 C108.4467408 102.00603132 109.74622746 116.86999922 109.91845703 131.83947754 C109.95048998 135.47378007 109.93131986 139.10782698 109.91601562 142.7421875 C109.88980873 149.83014355 109.94674304 156.91043369 110 164 C92.84 164 75.68 164 58 164 C58.09023437 159.88660156 58.18046875 155.77320312 58.2734375 151.53515625 C58.30626299 148.17508092 58.32469518 144.81558302 58.33370972 141.45539093 C58.34692746 137.95103178 58.38317715 134.45104024 58.48339844 130.94799805 C59.01765623 111.44105021 56.09166216 97.3715667 44.86459351 80.8094635 C41.63796489 75.94776292 38.78410613 70.86804419 35.875 65.8125 C34.70704162 63.81824119 33.53793344 61.82465488 32.3671875 59.83203125 C28.6268943 53.40226881 25.08547539 46.87181485 21.55834961 40.32348633 C17.10012062 32.08734978 12.39360376 24.00460377 7.63085938 15.94140625 C0 2.99792326 0 2.99792326 0 0 Z " fill="#293D6F" transform="translate(1852,2341)"/>
<path d="M0 0 C18.81 0 37.62 0 57 0 C71.820773 29.49480566 71.820773 29.49480566 78.62231445 44.06469727 C79.04085693 44.95342529 79.45939941 45.84215332 79.890625 46.7578125 C80.25188477 47.5327002 80.61314453 48.30758789 80.98535156 49.10595703 C81.96937765 51.16230855 81.96937765 51.16230855 84 53 C84.48526405 52.02614098 84.48526405 52.02614098 84.98033142 51.03260803 C88.02426991 44.92472294 91.07011543 38.81779234 94.11812496 32.7119379 C95.68519824 29.57256499 97.25152261 26.43282302 98.81616211 23.29223633 C100.61352168 19.68460861 102.41408951 16.07859073 104.21484375 12.47265625 C104.77840073 11.34038101 105.3419577 10.20810577 105.92259216 9.04151917 C106.70328819 7.48001381 106.70328819 7.48001381 107.49975586 5.88696289 C107.95942245 4.96540909 108.41908905 4.04385529 108.89268494 3.09437561 C110 1 110 1 111 0 C112.71865409 -0.0935919 114.44115744 -0.11744611 116.16235352 -0.11352539 C117.26341934 -0.11344986 118.36448517 -0.11337433 119.49891663 -0.11329651 C120.6968132 -0.10813522 121.89470978 -0.10297394 123.12890625 -0.09765625 C124.34827377 -0.0962413 125.5676413 -0.09482635 126.82395935 -0.09336853 C130.7368307 -0.08774967 134.64964581 -0.07519396 138.5625 -0.0625 C141.20768147 -0.05748743 143.85286383 -0.0529241 146.49804688 -0.04882812 C152.99871726 -0.03777411 159.49935461 -0.02101764 166 0 C165.20745782 3.43720122 163.980387 6.15633994 162.296875 9.26953125 C161.45467407 10.8321167 161.45467407 10.8321167 160.59545898 12.42626953 C159.98645752 13.54372559 159.37745605 14.66118164 158.75 15.8125 C158.11452108 16.98543652 157.4791878 18.15845195 156.84399414 19.33154297 C152.26888056 27.76037218 147.57350622 36.11892238 142.82714844 44.45239258 C138.40434926 52.23381348 134.13928223 60.09410637 129.89892578 67.97607422 C125.42086891 76.27729428 120.80568045 84.49623572 116.13671875 92.69140625 C115.62367188 93.59246094 115.110625 94.49351562 114.58203125 95.421875 C114.13061768 96.21174805 113.6792041 97.00162109 113.21411133 97.81542969 C112.81345459 98.53633789 112.41279785 99.25724609 112 100 C111.47730278 100.87313843 111.47730278 100.87313843 110.94404602 101.76391602 C109.74514519 104.60365359 109.71999212 106.88062505 109.68115234 109.96191406 C109.66128265 111.16285706 109.64141296 112.36380005 109.62094116 113.60113525 C109.60938995 114.89291687 109.59783875 116.18469849 109.5859375 117.515625 C109.56722013 118.85513495 109.54764629 120.19463318 109.5272522 121.53411865 C109.47598476 125.05213503 109.43633048 128.57018962 109.39910889 132.08837891 C109.35903526 135.68141043 109.30806432 139.27428629 109.2578125 142.8671875 C109.16008934 149.91139891 109.08053294 156.95548702 109 164 C92.17 164 75.34 164 58 164 C58.09023437 159.88660156 58.18046875 155.77320312 58.2734375 151.53515625 C58.30626299 148.17508092 58.32469518 144.81558302 58.33370972 141.45539093 C58.34692746 137.95103178 58.38317715 134.45104024 58.48339844 130.94799805 C59.0199249 111.36518559 56.03662397 97.28470834 44.76367188 80.6580658 C41.98268087 76.46677762 39.5693515 72.08026446 37.125 67.6875 C36.14803711 65.97660429 35.16910208 64.26683202 34.1875 62.55859375 C33.67960937 61.67284668 33.17171875 60.78709961 32.6484375 59.87451172 C32.10445312 58.92592285 31.56046875 57.97733398 31 57 C25.65389558 47.67392386 20.3175492 38.34238879 15 29 C14.65958679 28.40227783 14.31917358 27.80455566 13.96844482 27.1887207 C11.65811654 23.13050515 9.35807619 19.0665855 7.0625 15 C6.46518066 13.94973633 5.86786133 12.89947266 5.25244141 11.81738281 C4.7063623 10.84639648 4.1602832 9.87541016 3.59765625 8.875 C3.11820557 8.02679687 2.63875488 7.17859375 2.14477539 6.3046875 C1 4 1 4 0 0 Z " fill="#293D6F" transform="translate(2452,2341)"/>
<path d="M0 0 C17.16 0 34.32 0 52 0 C52 39.6 52 79.2 52 120 C74.77 120 97.54 120 121 120 C121 134.52 121 149.04 121 164 C81.07 164 41.14 164 0 164 C0 109.88 0 55.76 0 0 Z " fill="#293D6F" transform="translate(2179,2341)"/>
<path d="M0 0 C18.65892103 7.65314604 33.81330107 18.59897275 44.953125 35.66015625 C45.32099121 36.2030127 45.68885742 36.74586914 46.06787109 37.30517578 C65.37569027 65.96688948 69.31907153 100.1920398 62.953125 133.59765625 C58.09198562 157.34665083 48.6821756 197.56540445 28.953125 213.66015625 C24.22657635 216.52257041 19.3174496 216.29079528 13.953125 215.66015625 C9.50166249 213.47489283 6.76427355 210.72070415 3.953125 206.66015625 C1.8462789 200.33961796 3.25448741 194.40915386 4.78125 188.140625 C5.171629 186.47484795 5.56167122 184.80899195 5.95141602 183.14306641 C6.25875168 181.84650116 6.25875168 181.84650116 6.57229614 180.52374268 C16.62756875 137.86751634 22.83563579 96.4858541 -0.046875 56.66015625 C-6.95597192 46.25147951 -15.13403465 36.63107185 -24.921875 28.84765625 C-30.37891741 24.50052077 -33.30315775 21.73418757 -34.984375 14.78515625 C-35.38182849 9.30448183 -34.03672051 5.05204216 -30.51953125 0.82421875 C-21.80967718 -7.02017413 -9.95540284 -3.82002268 0 0 Z " fill="#EC1C23" transform="translate(1425.046875,895.33984375)"/>
<path d="M0 0 C11.88 0 23.76 0 36 0 C45.27678479 11.57854342 45.27678479 11.57854342 47.19921875 17.01953125 C49.96774164 24.19083719 53.65283852 30.50138897 57.625 37.0625 C66.61097386 52.53390206 75.63016848 68.23822078 82 85 C81.97003433 84.4079628 81.94006866 83.8159256 81.90919495 83.20594788 C81.04709564 65.62031467 80.87198548 48.07414893 80.93133545 30.46966553 C80.94181334 27.015591 80.94623977 23.56150804 80.95117188 20.10742188 C80.96116072 13.40490655 80.98075832 6.70252017 81 0 C90.24 0 99.48 0 109 0 C109 42.24 109 84.48 109 128 C98.44 128 87.88 128 77 128 C67.99618788 116.48349613 67.99618788 116.48349613 65.94140625 111.05078125 C62.99482688 103.78780126 59.27866233 97.15933292 55.375 90.375 C54.11595866 88.10700974 52.86198924 85.83619595 51.61328125 83.5625 C49.30647769 79.37032225 46.99191936 75.18269449 44.66796875 71 C43.63236406 69.12524765 42.59718413 67.25026057 41.5625 65.375 C41.11503418 64.57239746 40.66756836 63.76979492 40.20654297 62.94287109 C35.72538616 54.77658496 31.99491698 46.48919858 28 38 C28 67.7 28 97.4 28 128 C18.76 128 9.52 128 0 128 C0 85.76 0 43.52 0 0 Z " fill="#717C83" transform="translate(2268,2597)"/>
<path d="M0 0 C0.86311798 -0.0066568 1.72623596 -0.0133136 2.61550903 -0.02017212 C4.41145754 -0.03013574 6.20744185 -0.03499433 8.00341797 -0.03466797 C10.68651583 -0.03904814 13.36797087 -0.07556418 16.05078125 -0.11328125 C37.80716402 -0.25632697 59.37254805 3.69517287 75.41796875 19.5234375 C88.03352046 34.29286389 91.16179427 51.82902712 90.04345703 70.78466797 C88.49608301 88.4761981 81.14986048 103.13017059 67.890625 115.07421875 C49.91025349 129.51074111 26.05635672 131.43688359 3.8828125 131.5859375 C2.96757813 131.5952832 2.05234375 131.60462891 1.109375 131.61425781 C-8.49045249 131.57098536 -17.48196937 130.35674993 -27.1796875 129.3359375 C-27.1796875 87.4259375 -27.1796875 45.5159375 -27.1796875 2.3359375 C-7.50836701 0.0216645 -7.50836701 0.0216645 0 0 Z M3.8203125 24.3359375 C3.72523429 26.92232788 3.69474874 29.4819231 3.70678711 32.06860352 C3.70664108 32.8782959 3.70649506 33.68798828 3.7063446 34.5222168 C3.70704396 37.21145258 3.7148374 39.90061999 3.72265625 42.58984375 C3.72452035 44.44929466 3.72594429 46.30874606 3.72694397 48.16819763 C3.73076979 53.07222846 3.74060062 57.97622986 3.75164795 62.88024902 C3.76186069 67.88044842 3.76644129 72.88065256 3.77148438 77.88085938 C3.78222283 87.69923171 3.79930002 97.51758216 3.8203125 107.3359375 C6.98429975 107.39292717 10.14815222 107.42687475 13.3125 107.45703125 C14.64124146 107.48138245 14.64124146 107.48138245 15.99682617 107.50622559 C26.77645143 107.5830459 36.05784116 105.15278814 44.4453125 98.0234375 C53.86969524 88.56779644 57.87023521 77.51607741 58.0703125 64.2109375 C57.96883606 53.08658233 55.35122026 41.95508418 47.6328125 33.6484375 C38.04775758 24.69693631 27.52605078 22.97962 14.8203125 23.1484375 C13.86769531 23.14908203 12.91507813 23.14972656 11.93359375 23.15039062 C7.54325863 22.77720928 7.54325863 22.77720928 3.8203125 24.3359375 Z " fill="#717C83" transform="translate(1471.1796875,2595.6640625)"/>
<path d="M0 0 C1.85261687 -0.0115009 3.7052011 -0.03192272 5.55761719 -0.06152344 C22.19818577 -0.32612873 39.07928601 0.3999843 52.12426758 12.10766602 C59.60493159 19.91905412 61.78107718 28.32636081 61.71606445 38.89208984 C61.31578853 47.73249746 57.73537217 54.78523627 51.72973633 61.23266602 C48.1986106 64.45570695 44.25986163 66.9531863 40.10473633 69.29516602 C40.62422852 69.63547852 41.1437207 69.97579102 41.67895508 70.32641602 C52.2285701 77.65849596 54.73005988 87.37875885 58.10473633 99.29516602 C58.39703125 100.31674805 58.68932617 101.33833008 58.99047852 102.39086914 C60.5612376 107.88933313 62.11775526 113.39175754 63.65161133 118.90063477 C63.9078125 119.81997803 64.16401367 120.73932129 64.42797852 121.68652344 C65.08014491 124.2003755 65.59540897 126.74852925 66.10473633 129.29516602 C55.87473633 129.29516602 45.64473633 129.29516602 35.10473633 129.29516602 C32.57057199 123.59329626 30.60294562 119.146738 29.10473633 113.31860352 C28.77473633 112.07079102 28.44473633 110.82297852 28.10473633 109.53735352 C27.60331601 107.59826711 27.1019189 105.65917143 26.60473633 103.71899414 C23.96575294 91.73133416 23.96575294 91.73133416 16.60473633 82.42016602 C10.09912669 79.49264168 4.66222215 79.87651108 -2.89526367 79.29516602 C-2.89526367 95.79516602 -2.89526367 112.29516602 -2.89526367 129.29516602 C-13.12526367 129.29516602 -23.35526367 129.29516602 -33.89526367 129.29516602 C-33.89526367 87.71516602 -33.89526367 46.13516602 -33.89526367 3.29516602 C-23.3122672 -0.93803257 -11.26959531 0.04849479 0 0 Z M-2.89526367 23.29516602 C-2.89526367 34.51516602 -2.89526367 45.73516602 -2.89526367 57.29516602 C11.70268926 58.21703254 11.70268926 58.21703254 25.10473633 53.29516602 C28.96785902 49.43204332 31.38816672 45.44339147 31.41723633 39.92016602 C31.25400181 34.06292753 29.51385559 30.70428527 25.35473633 26.54516602 C17.19794125 20.89815404 6.54401394 20.93534661 -2.89526367 23.29516602 Z " fill="#717C83" transform="translate(2580.895263671875,2595.704833984375)"/>
<path d="M0 0 C0.8730629 -0.0066568 1.74612579 -0.0133136 2.64564514 -0.02017212 C4.46613502 -0.03015944 6.28666049 -0.03499356 8.10717773 -0.03466797 C10.84096161 -0.03905176 13.57313897 -0.07555074 16.30664062 -0.11328125 C32.67825119 -0.21745432 48.61989776 1.5726679 61.22265625 13.0234375 C68.41304073 20.70082013 70.20874074 30.02233162 69.91015625 40.3359375 C68.71544207 49.03207822 65.28823543 56.76937144 58.40234375 62.37890625 C55.9474376 64.11451774 53.46330774 65.74955594 50.91015625 67.3359375 C49.92015625 67.9959375 48.93015625 68.6559375 47.91015625 69.3359375 C48.77640625 69.8309375 49.64265625 70.3259375 50.53515625 70.8359375 C62.34548226 78.80233665 64.97840858 94.51636928 68.484375 107.36132812 C69.16670106 109.85990362 69.8580694 112.35584855 70.55078125 114.8515625 C70.98880409 116.43996008 71.42632295 118.02849674 71.86328125 119.6171875 C72.06947083 120.36295044 72.2756604 121.10871338 72.48809814 121.8770752 C73.91015625 127.10316549 73.91015625 127.10316549 73.91015625 129.3359375 C63.68015625 129.3359375 53.45015625 129.3359375 42.91015625 129.3359375 C38.42042274 118.11160373 38.42042274 118.11160373 37.12890625 112.953125 C36.70158203 111.29603516 36.70158203 111.29603516 36.265625 109.60546875 C35.69346103 107.33510121 35.1231601 105.06426338 34.5546875 102.79296875 C31.86018077 91.64239357 31.86018077 91.64239357 24.91015625 82.8984375 C18.2312979 79.41986544 12.9743386 79.95625922 4.91015625 79.3359375 C4.91015625 95.8359375 4.91015625 112.3359375 4.91015625 129.3359375 C-4.98984375 129.3359375 -14.88984375 129.3359375 -25.08984375 129.3359375 C-25.08984375 87.4259375 -25.08984375 45.5159375 -25.08984375 2.3359375 C-7.73349337 0.02175745 -7.73349337 0.02175745 0 0 Z M4.91015625 23.3359375 C4.91015625 34.5559375 4.91015625 45.7759375 4.91015625 57.3359375 C20.29873343 58.43865545 20.29873343 58.43865545 33.91015625 52.3359375 C37.64685249 48.50810233 39.05006046 45.33555937 39.16015625 40.0234375 C39.06441818 34.11639884 37.3563794 30.78216065 33.16015625 26.5859375 C25.00336117 20.93892552 14.34943386 20.9761181 4.91015625 23.3359375 Z " fill="#717C83" transform="translate(1335.08984375,2595.6640625)"/>
<path d="M0 0 C13.2 0 26.4 0 40 0 C47.92799837 23.45818694 55.56755461 47.00005512 63.1035881 70.58621216 C63.86853033 72.97975607 64.63415745 75.37307996 65.39993286 77.76635742 C70.74300779 94.46964099 76.03767699 111.17856607 81 128 C70.11 128 59.22 128 48 128 C43.4954955 116.73873874 43.4954955 116.73873874 42.296875 112.71875 C42.0390625 111.85765625 41.78125 110.9965625 41.515625 110.109375 C41.26296875 109.24828125 41.0103125 108.3871875 40.75 107.5 C40.3478125 106.16195312 40.3478125 106.16195312 39.9375 104.796875 C38 98.27264031 38 98.27264031 38 96 C37.0212793 96.00523682 36.04255859 96.01047363 35.03417969 96.01586914 C31.39633095 96.03399561 27.75848619 96.04545997 24.12060547 96.05493164 C22.54735645 96.05995437 20.97411208 96.06677375 19.40087891 96.07543945 C17.13703257 96.08759529 14.87324807 96.09324896 12.609375 96.09765625 C11.90818542 96.10281754 11.20699585 96.10797882 10.48455811 96.11329651 C7.17514249 96.11367502 4.16412237 96.02514727 1 95 C0.65388672 96.43666016 0.65388672 96.43666016 0.30078125 97.90234375 C-2.17050788 108.03411539 -5.00311086 118.01036952 -8 128 C-18.56 128 -29.12 128 -40 128 C-32.0501088 101.38331481 -23.85418332 74.85276423 -15.44580078 48.37719727 C-14.71768756 46.08352335 -13.9896591 43.78982253 -13.26171875 41.49609375 C-12.9096637 40.38744461 -12.55760864 39.27879547 -12.19488525 38.1365509 C-9.23217931 28.7843008 -6.34334053 19.41001054 -3.49015808 10.02378845 C-3.1773439 8.99894852 -2.86452972 7.97410858 -2.54223633 6.91821289 C-2.13029778 5.5619857 -2.13029778 5.5619857 -1.71003723 4.17835999 C-1 2 -1 2 0 0 Z M18 24 C17.8141333 24.75917725 17.6282666 25.51835449 17.43676758 26.30053711 C10.79370915 53.35794952 10.79370915 53.35794952 7.4230957 64.02319336 C6.42301189 67.24153689 6 69.56966952 6 73 C14.91 73 23.82 73 33 73 C30.70353455 63.44670373 28.18896126 53.99525069 25.4375 44.5625 C25.14480225 43.55703125 24.85210449 42.5515625 24.55053711 41.515625 C22.82105472 35.63217041 20.97522449 29.80559902 19 24 C18.67 24 18.34 24 18 24 Z " fill="#717C83" transform="translate(1193,2597)"/>
<path d="M0 0 C13.2 0 26.4 0 40 0 C43.37439956 7.87359898 43.37439956 7.87359898 44.69140625 12.09082031 C44.99090683 13.04315552 45.29040741 13.99549072 45.59898376 14.97668457 C45.91694412 16.00015991 46.23490448 17.02363525 46.5625 18.078125 C46.90660416 19.17443237 47.25070831 20.27073975 47.60523987 21.40026855 C48.35030568 23.77463883 49.09382596 26.14949452 49.83596802 28.52478027 C51.82942847 34.90439726 53.83402662 41.28050994 55.83984375 47.65625 C56.04757856 48.3169323 56.25531338 48.97761459 56.46934319 49.65831757 C59.73025433 60.02553831 63.03841042 70.37691177 66.37890625 80.71875 C66.59776867 81.39656273 66.81663109 82.07437546 67.0421257 82.77272797 C69.17481045 89.37645305 71.31157329 95.97884201 73.45486546 102.57913208 C74.43143215 105.58860219 75.40477745 108.59911504 76.37890625 111.609375 C76.73223526 112.69327515 77.08556427 113.77717529 77.44960022 114.8939209 C77.77246506 115.89282349 78.0953299 116.89172607 78.42797852 117.92089844 C78.70899918 118.78600037 78.99001984 119.65110229 79.27955627 120.54241943 C79.99722879 122.99054684 80.49967773 125.49838867 81 128 C70.11 128 59.22 128 48 128 C45.52494061 121.39984164 43.34896945 114.85937915 41.3125 108.125 C40.99216797 107.08085937 40.67183594 106.03671875 40.34179688 104.9609375 C40.03951172 103.96578125 39.73722656 102.970625 39.42578125 101.9453125 C39.15161377 101.04312988 38.87744629 100.14094727 38.5949707 99.21142578 C38 97 38 97 38 95 C25.79 95 13.58 95 1 95 C0.34 98.3 -0.32 101.6 -1 105 C-1.53912361 107.01270798 -2.10896669 109.01778157 -2.7265625 111.0078125 C-3.00580566 111.9167627 -3.28504883 112.82571289 -3.57275391 113.76220703 C-3.91999512 114.87192871 -4.26723633 115.98165039 -4.625 117.125 C-5.73875 120.71375 -6.8525 124.3025 -8 128 C-18.23 128 -28.46 128 -39 128 C-37.87518642 120.12630494 -37.87518642 120.12630494 -36.64331055 116.27978516 C-36.36686203 115.40663666 -36.09041351 114.53348816 -35.80558777 113.63388062 C-35.50236099 112.69509064 -35.19913422 111.75630066 -34.88671875 110.7890625 C-34.56476028 109.7757486 -34.24280182 108.76243469 -33.91108704 107.71841431 C-33.20952787 105.51145965 -32.50559103 103.30525974 -31.79956055 101.09973145 C-29.87906009 95.09895805 -27.97666775 89.09245386 -26.07421875 83.0859375 C-25.87333523 82.45230286 -25.67245171 81.81866821 -25.4654808 81.16583252 C-22.07668054 70.47300211 -18.75119101 59.76140388 -15.45703125 49.0390625 C-15.22826483 48.29449924 -14.99949841 47.54993599 -14.76379967 46.78281021 C-12.50182322 39.41834016 -10.24518956 32.05223832 -7.9912138 24.68531609 C-7.1514541 21.94171893 -6.31043258 19.19850953 -5.46919823 16.45536423 C-4.88751972 14.5564952 -4.30791086 12.65699256 -3.72834778 10.75747681 C-3.38228989 9.6286911 -3.03623199 8.4999054 -2.6796875 7.33691406 C-2.37788574 6.34951233 -2.07608398 5.3621106 -1.76513672 4.3447876 C-1 2 -1 2 0 0 Z M18 25 C17.74307373 26.00788574 17.48614746 27.01577148 17.22143555 28.05419922 C16.25626132 31.83810632 15.28831374 35.62129962 14.31958008 39.40429688 C13.90282218 41.03333893 13.4867898 42.66256679 13.0715332 44.29199219 C8.83215181 60.92301908 8.83215181 60.92301908 6.49145508 68.15673828 C5.87118859 70.16518053 5.87118859 70.16518053 6 73 C14.91 73 23.82 73 33 73 C31.78987748 66.94938739 30.62969794 61.34180422 28.90625 55.48828125 C28.61796326 54.50229195 28.61796326 54.50229195 28.32385254 53.49638367 C27.71988455 51.43389429 27.11012136 49.37317641 26.5 47.3125 C26.09205009 45.92394494 25.68449556 44.53527366 25.27734375 43.14648438 C24.52785095 40.59080905 23.77566857 38.03599042 23.02148438 35.48168945 C21.99772838 31.99225728 20.99495907 28.49772831 20 25 C19.34 25 18.68 25 18 25 Z " fill="#717C83" transform="translate(1704,2597)"/>
<path d="M0 0 C27.06 0 54.12 0 82 0 C82 7.92 82 15.84 82 24 C65.17 24 48.34 24 31 24 C31 32.58 31 41.16 31 50 C46.84 50 62.68 50 79 50 C79 57.92 79 65.84 79 74 C63.16 74 47.32 74 31 74 C31 83.9 31 93.8 31 104 C48.82 104 66.64 104 85 104 C85 111.92 85 119.84 85 128 C56.95 128 28.9 128 0 128 C0 85.76 0 43.52 0 0 Z " fill="#717D84" transform="translate(2682,2597)"/>
<path d="M0 0 C26.73 0 53.46 0 81 0 C81 7.92 81 15.84 81 24 C64.17 24 47.34 24 30 24 C30 32.58 30 41.16 30 50 C46.17 50 62.34 50 79 50 C79 57.92 79 65.84 79 74 C62.83 74 46.66 74 30 74 C30 83.9 30 93.8 30 104 C47.82 104 65.64 104 84 104 C84 111.92 84 119.84 84 128 C56.28 128 28.56 128 0 128 C0 85.76 0 43.52 0 0 Z " fill="#717D83" transform="translate(2145,2597)"/>
<path d="M0 0 C0.99 0.99 0.99 0.99 2 2 C1.05465177 5.64932876 0.09157399 9.29374086 -0.875 12.9375 C-1.14441406 13.97841797 -1.41382813 15.01933594 -1.69140625 16.09179688 C-1.95566406 17.08115234 -2.21992187 18.07050781 -2.4921875 19.08984375 C-2.85352783 20.46450806 -2.85352783 20.46450806 -3.22216797 21.86694336 C-4 24 -4 24 -6 25 C-8.35546875 24.4765625 -8.35546875 24.4765625 -11.1875 23.625 C-24.41461584 19.86788149 -38.07909483 19.49049765 -50.8359375 25.2890625 C-59.85193248 30.35209872 -65.26324003 37.25621326 -68.6875 46.9453125 C-72.2043281 59.79150402 -70.67918197 73.80776087 -64.6796875 85.59375 C-59.12118104 94.70605567 -51.19683326 99.34772396 -41 102 C-28.76778736 104.36030019 -15.90309331 102.16259318 -4 99 C-3.32882733 102.43663614 -2.66383929 105.87444041 -2 109.3125 C-1.80921875 110.28896484 -1.6184375 111.26542969 -1.421875 112.27148438 C-1.24140625 113.20927734 -1.0609375 114.14707031 -0.875 115.11328125 C-0.70742187 115.97735596 -0.53984375 116.84143066 -0.3671875 117.73168945 C0 120 0 120 0 123 C-11.07338657 127.51137971 -21.67869839 128.43974359 -33.5625 128.4375 C-34.27110168 128.43889984 -34.97970337 128.44029968 -35.70977783 128.44174194 C-46.8431528 128.42365143 -56.69006689 127.41152084 -67 123 C-68.39025391 122.47599609 -68.39025391 122.47599609 -69.80859375 121.94140625 C-83.13644565 116.26511363 -93.49082798 103.63499395 -98.8125 90.5 C-105.7297318 72.17995946 -104.82544592 51.80265285 -97.71484375 33.734375 C-89.97978399 16.92839557 -76.98544512 6.61414799 -60 0 C-58.96359375 -0.41507813 -57.9271875 -0.83015625 -56.859375 -1.2578125 C-39.8232811 -6.92330419 -16.7628926 -6.70515704 0 0 Z " fill="#717C83" transform="translate(1913,2599)"/>
<path d="M0 0 C0.66680786 -0.00111786 1.33361572 -0.00223572 2.02062988 -0.00338745 C12.6507527 0.00541391 22.76218222 0.53734111 32.4375 5.375 C31.79895015 10.90175903 30.50056646 15.99867351 28.875 21.3125 C28.64103516 22.09173828 28.40707031 22.87097656 28.16601562 23.67382812 C27.59432579 25.57557187 27.01654309 27.47548226 26.4375 29.375 C25.65246094 29.17003906 24.86742188 28.96507813 24.05859375 28.75390625 C8.4288636 24.7457914 -7.56341558 22.85651391 -22.28125 30.9140625 C-30.38591504 36.10437881 -35.39570201 44.04202457 -38.12036133 53.26293945 C-40.67665701 65.47415643 -39.47961109 79.86461542 -33.2421875 90.66015625 C-26.90040217 99.93025229 -17.86617864 104.6085342 -7.046875 106.91015625 C3.89069691 108.36961753 15.95424221 106.66141812 26.4375 103.375 C28.45964499 111.37455473 29.95837184 119.13069133 30.4375 127.375 C9.89298458 135.74498776 -15.84800026 135.3416608 -36.27734375 126.8671875 C-50.36932457 120.61629167 -61.49326421 109.66928698 -67.41894531 95.39770508 C-70.83061629 86.37979338 -72.09516326 77.66874413 -72 68.0625 C-71.98755249 66.42619629 -71.98755249 66.42619629 -71.97485352 64.75683594 C-71.60706829 47.10838028 -65.80472611 31.80055539 -53.41796875 18.9453125 C-44.33131015 10.76607671 -34.2776795 5.77485978 -22.5625 2.375 C-21.40621094 2.01019531 -20.24992187 1.64539062 -19.05859375 1.26953125 C-12.81984909 -0.24463298 -6.38135904 -0.00670477 0 0 Z " fill="#717C83" transform="translate(2075.5625,2594.625)"/>
<path d="M0 0 C0.66680786 -0.00111786 1.33361572 -0.00223572 2.02062988 -0.00338745 C12.6507527 0.00541391 22.76218222 0.53734111 32.4375 5.375 C31.79895015 10.90175903 30.50056646 15.99867351 28.875 21.3125 C28.64103516 22.09173828 28.40707031 22.87097656 28.16601562 23.67382812 C27.59432579 25.57557187 27.01654309 27.47548226 26.4375 29.375 C25.65246094 29.17003906 24.86742187 28.96507813 24.05859375 28.75390625 C8.50271708 24.76473051 -7.54259842 22.8343712 -22.2109375 30.84375 C-31.12798212 36.65019766 -36.3435892 44.98893615 -38.5625 55.375 C-39.41719432 66.47659508 -40.05796162 78.37631288 -34.5625 88.375 C-33.985 89.4475 -33.4075 90.52 -32.8125 91.625 C-24.5470813 101.72717842 -15.61092826 105.71630089 -2.75390625 107.1953125 C7.04433842 107.83712915 17.09590438 106.27581127 26.4375 103.375 C28.45964499 111.37455473 29.95837184 119.13069133 30.4375 127.375 C19.76928875 131.72130829 9.80894939 132.76498885 -1.6875 132.75 C-2.96979492 132.74838867 -4.25208984 132.74677734 -5.57324219 132.74511719 C-15.1624534 132.62127577 -23.53560321 131.66783028 -32.5625 128.375 C-33.86767578 127.90707031 -33.86767578 127.90707031 -35.19921875 127.4296875 C-49.6325523 121.59754253 -60.22497784 110.82513004 -66.74609375 96.8359375 C-74.00080134 79.66912026 -74.51773736 57.71149669 -67.5625 40.375 C-60.66682046 24.42531151 -48.93404745 12.35756226 -32.8359375 5.77734375 C-29.43017139 4.52661808 -26.04655793 3.38610772 -22.5625 2.375 C-21.40621094 2.01019531 -20.24992187 1.64539062 -19.05859375 1.26953125 C-12.81984909 -0.24463298 -6.38135904 -0.00670477 0 0 Z " fill="#717C83" transform="translate(1091.5625,2594.625)"/>
<path d="M0 0 C33.33 0 66.66 0 101 0 C101 8.25 101 16.5 101 25 C89.12 25 77.24 25 65 25 C65 58.99 65 92.98 65 128 C55.1 128 45.2 128 35 128 C35 94.01 35 60.02 35 25 C23.45 25 11.9 25 0 25 C0 16.75 0 8.5 0 0 Z " fill="#717C83" transform="translate(2412,2597)"/>
<path d="M0 0 C10.23 0 20.46 0 31 0 C31 42.24 31 84.48 31 128 C20.77 128 10.54 128 0 128 C0 85.76 0 43.52 0 0 Z " fill="#717C83" transform="translate(1599,2597)"/>
<path d="M0 0 C14.19 0 28.38 0 43 0 C39 4 39 4 35.75 4.25 C34.8425 4.1675 33.935 4.085 33 4 C33.66 3.34 34.32 2.68 35 2 C23.45 1.67 11.9 1.34 0 1 C0 0.67 0 0.34 0 0 Z " fill="#C12335" transform="translate(1404,1338)"/>
</svg>
